<svg width="1134" height="390" viewBox="0 0 1134 390" fill="none" xmlns="http://www.w3.org/2000/svg">
<rect x="0.5" y="147.326" width="172.901" height="93.7603" rx="46.8802" fill="#99F5FF" fill-opacity="0.2" stroke="#99F5FF"/>
<path d="M29.7684 202.355V188.078H32.7957V199.855H38.5867V202.355H29.7684ZM42.4769 202.355V188.078H45.5043V202.355H42.4769ZM63.1641 202.355H59.3164L53.1055 191.555H53.0176C53.0436 192.004 53.0664 192.456 53.0859 192.912C53.1055 193.368 53.125 193.824 53.1445 194.279C53.1641 194.728 53.1836 195.181 53.2031 195.637V202.355H50.498V188.078H54.3164L60.5176 198.771H60.5859C60.5729 198.329 60.5566 197.889 60.5371 197.453C60.5176 197.017 60.498 196.581 60.4785 196.144C60.4655 195.708 60.4525 195.272 60.4394 194.836V188.078H63.1641V202.355ZM76.3902 202.355H68.1676V188.078H76.3902V190.559H71.1949V193.693H76.0289V196.174H71.1949V199.855H76.3902V202.355ZM89.2062 198.391C89.2062 199.237 89.0012 199.973 88.591 200.598C88.1809 201.223 87.5819 201.704 86.7941 202.043C86.0129 202.381 85.0624 202.551 83.9426 202.551C83.4478 202.551 82.9628 202.518 82.4875 202.453C82.0187 202.388 81.5663 202.294 81.1301 202.17C80.7004 202.04 80.2902 201.88 79.8996 201.691V198.879C80.5767 199.178 81.2798 199.449 82.009 199.689C82.7381 199.93 83.4608 200.051 84.1769 200.051C84.6717 200.051 85.0689 199.986 85.3684 199.855C85.6743 199.725 85.8957 199.546 86.0324 199.318C86.1691 199.09 86.2375 198.83 86.2375 198.537C86.2375 198.179 86.1171 197.873 85.8762 197.619C85.6353 197.365 85.3033 197.128 84.8801 196.906C84.4634 196.685 83.9914 196.447 83.4641 196.193C83.132 196.037 82.7707 195.848 82.3801 195.627C81.9894 195.399 81.6184 195.122 81.2668 194.797C80.9152 194.471 80.6255 194.077 80.3977 193.615C80.1763 193.146 80.0656 192.587 80.0656 191.935C80.0656 191.083 80.2609 190.353 80.6516 189.748C81.0422 189.143 81.5988 188.68 82.3215 188.361C83.0506 188.036 83.91 187.873 84.8996 187.873C85.6418 187.873 86.3482 187.961 87.0187 188.137C87.6958 188.306 88.4022 188.553 89.1379 188.879L88.1613 191.232C87.5038 190.965 86.9146 190.76 86.3937 190.617C85.8729 190.467 85.3423 190.393 84.8019 190.393C84.4243 190.393 84.1021 190.454 83.8352 190.578C83.5682 190.695 83.3664 190.865 83.2297 191.086C83.093 191.301 83.0246 191.551 83.0246 191.838C83.0246 192.176 83.1223 192.463 83.3176 192.697C83.5194 192.925 83.8189 193.146 84.216 193.361C84.6197 193.576 85.121 193.827 85.7199 194.113C86.4491 194.458 87.0708 194.82 87.5852 195.197C88.106 195.568 88.5064 196.008 88.7863 196.516C89.0663 197.017 89.2062 197.642 89.2062 198.391ZM97.7547 188.078C99.5971 188.078 100.942 188.475 101.788 189.269C102.634 190.057 103.057 191.144 103.057 192.531C103.057 193.156 102.963 193.755 102.774 194.328C102.585 194.894 102.276 195.399 101.846 195.842C101.423 196.284 100.857 196.636 100.147 196.896C99.4376 197.15 98.562 197.277 97.5203 197.277H96.2215V202.355H93.1941V188.078H97.7547ZM97.5984 190.559H96.2215V194.797H97.2176C97.784 194.797 98.2755 194.722 98.6922 194.572C99.1089 194.422 99.4311 194.188 99.659 193.869C99.8868 193.55 100.001 193.14 100.001 192.639C100.001 191.935 99.8055 191.415 99.4148 191.076C99.0242 190.731 98.4187 190.559 97.5984 190.559ZM115.893 202.355L114.858 198.957H109.653L108.618 202.355H105.356L110.395 188.019H114.096L119.155 202.355H115.893ZM114.135 196.418L113.1 193.098C113.035 192.876 112.947 192.593 112.836 192.248C112.732 191.896 112.625 191.542 112.514 191.184C112.41 190.819 112.325 190.503 112.26 190.236C112.195 190.503 112.104 190.835 111.987 191.232C111.876 191.623 111.769 191.994 111.664 192.346C111.56 192.697 111.485 192.948 111.44 193.098L110.414 196.418H114.135ZM128.426 190.393C127.846 190.393 127.332 190.506 126.883 190.734C126.44 190.956 126.066 191.278 125.76 191.701C125.46 192.124 125.232 192.635 125.076 193.234C124.92 193.833 124.842 194.507 124.842 195.256C124.842 196.265 124.965 197.128 125.213 197.844C125.467 198.553 125.857 199.097 126.385 199.475C126.912 199.846 127.592 200.031 128.426 200.031C129.005 200.031 129.585 199.966 130.164 199.836C130.75 199.706 131.385 199.52 132.068 199.279V201.818C131.437 202.079 130.815 202.264 130.203 202.375C129.591 202.492 128.904 202.551 128.143 202.551C126.671 202.551 125.46 202.248 124.51 201.643C123.566 201.031 122.866 200.178 122.41 199.084C121.954 197.984 121.727 196.701 121.727 195.236C121.727 194.156 121.873 193.166 122.166 192.268C122.459 191.369 122.889 190.591 123.455 189.934C124.021 189.276 124.721 188.768 125.555 188.41C126.388 188.052 127.345 187.873 128.426 187.873C129.135 187.873 129.845 187.964 130.555 188.146C131.271 188.322 131.954 188.566 132.605 188.879L131.629 191.34C131.095 191.086 130.558 190.865 130.018 190.676C129.477 190.487 128.947 190.393 128.426 190.393ZM144.738 202.355H136.515V188.078H144.738V190.559H139.543V193.693H144.377V196.174H139.543V199.855H144.738V202.355Z" fill="#99F5FF"/>
<rect x="263.955" y="0.5" width="103.132" height="103.132" rx="5.5" fill="#7B61FF" fill-opacity="0.17" stroke="#7B61FF"/>
<path d="M301.087 55.7294C301.087 56.5757 300.882 57.3114 300.471 57.9364C300.061 58.5614 299.462 59.0432 298.675 59.3817C297.893 59.7202 296.943 59.8895 295.823 59.8895C295.328 59.8895 294.843 59.857 294.368 59.7919C293.899 59.7268 293.447 59.6324 293.011 59.5087C292.581 59.3784 292.171 59.2189 291.78 59.0301V56.2176C292.457 56.5171 293.16 56.7873 293.889 57.0282C294.619 57.2691 295.341 57.3895 296.057 57.3895C296.552 57.3895 296.949 57.3244 297.249 57.1942C297.555 57.064 297.776 56.885 297.913 56.6571C298.05 56.4292 298.118 56.1688 298.118 55.8758C298.118 55.5178 297.998 55.2118 297.757 54.9579C297.516 54.704 297.184 54.4663 296.761 54.245C296.344 54.0236 295.872 53.786 295.345 53.5321C295.013 53.3758 294.651 53.187 294.261 52.9657C293.87 52.7378 293.499 52.4611 293.147 52.1356C292.796 51.8101 292.506 51.4162 292.278 50.954C292.057 50.4852 291.946 49.9253 291.946 49.2743C291.946 48.4214 292.141 47.6922 292.532 47.0868C292.923 46.4813 293.479 46.0191 294.202 45.7001C294.931 45.3745 295.79 45.2118 296.78 45.2118C297.522 45.2118 298.229 45.2997 298.899 45.4755C299.576 45.6447 300.283 45.8921 301.018 46.2176L300.042 48.5712C299.384 48.3042 298.795 48.0992 298.274 47.9559C297.753 47.8062 297.223 47.7313 296.682 47.7313C296.305 47.7313 295.983 47.7932 295.716 47.9169C295.449 48.034 295.247 48.2033 295.11 48.4247C294.973 48.6395 294.905 48.8902 294.905 49.1766C294.905 49.5152 295.003 49.8016 295.198 50.036C295.4 50.2639 295.699 50.4852 296.096 50.7001C296.5 50.9149 297.001 51.1656 297.6 51.452C298.33 51.7971 298.951 52.1584 299.466 52.536C299.986 52.9071 300.387 53.3465 300.667 53.8544C300.947 54.3557 301.087 54.9807 301.087 55.7294ZM305.075 59.6942V45.4169H308.102V59.6942H305.075ZM325.762 59.6942H321.914L315.703 48.8934H315.615C315.641 49.3426 315.664 49.7951 315.684 50.2508C315.703 50.7066 315.723 51.1623 315.742 51.618C315.762 52.0672 315.781 52.5197 315.801 52.9755V59.6942H313.096V45.4169H316.914L323.115 56.1102H323.184C323.171 55.6675 323.154 55.2281 323.135 54.7919C323.115 54.3557 323.096 53.9195 323.076 53.4833C323.063 53.0471 323.05 52.6109 323.037 52.1747V45.4169H325.762V59.6942ZM338.988 59.6942H330.765V45.4169H338.988V47.8973H333.793V51.0321H338.627V53.5126H333.793V57.1942H338.988V59.6942Z" fill="#7B61FF"/>
<path d="M909.574 6C909.574 2.96243 912.037 0.5 915.074 0.5H1128C1131.04 0.5 1133.5 2.96243 1133.5 6V136.661C1133.5 139.699 1131.04 142.161 1128 142.161H915.074C912.037 142.161 909.574 139.699 909.574 136.661V6Z" fill="#99F5FF" fill-opacity="0.2" stroke="#99F5FF"/>
<rect x="909.574" y="247.293" width="223.926" height="141.661" rx="5.5" fill="#99F5FF" fill-opacity="0.2" stroke="#99F5FF"/>
<rect x="263.955" y="285.822" width="103.132" height="103.132" rx="5.5" fill="#7B61FF" fill-opacity="0.17" stroke="#7B61FF"/>
<path d="M310.605 345.017H300.625V342.917L304.209 339.294C304.931 338.552 305.511 337.933 305.947 337.438C306.39 336.937 306.709 336.481 306.904 336.071C307.106 335.661 307.207 335.222 307.207 334.753C307.207 334.186 307.047 333.763 306.728 333.483C306.416 333.197 305.996 333.054 305.468 333.054C304.915 333.054 304.378 333.181 303.857 333.434C303.336 333.688 302.793 334.05 302.226 334.518L300.586 332.575C300.996 332.224 301.429 331.892 301.884 331.579C302.347 331.267 302.88 331.016 303.486 330.827C304.098 330.632 304.83 330.534 305.683 330.534C306.621 330.534 307.425 330.703 308.095 331.042C308.772 331.38 309.293 331.843 309.658 332.429C310.022 333.008 310.205 333.666 310.205 334.401C310.205 335.189 310.048 335.908 309.736 336.559C309.423 337.211 308.968 337.855 308.369 338.493C307.776 339.131 307.06 339.837 306.22 340.612L304.384 342.341V342.477H310.605V345.017ZM313.812 343.62C313.812 343.008 313.978 342.578 314.31 342.331C314.648 342.084 315.055 341.96 315.53 341.96C315.993 341.96 316.39 342.084 316.722 342.331C317.06 342.578 317.23 343.008 317.23 343.62C317.23 344.206 317.06 344.629 316.722 344.89C316.39 345.15 315.993 345.28 315.53 345.28C315.055 345.28 314.648 345.15 314.31 344.89C313.978 344.629 313.812 344.206 313.812 343.62ZM330.475 337.878C330.475 339.03 330.384 340.059 330.202 340.964C330.026 341.869 329.74 342.637 329.343 343.268C328.952 343.9 328.438 344.382 327.8 344.714C327.162 345.046 326.387 345.212 325.475 345.212C324.33 345.212 323.389 344.922 322.653 344.343C321.917 343.757 321.374 342.917 321.022 341.823C320.671 340.723 320.495 339.408 320.495 337.878C320.495 336.335 320.654 335.017 320.973 333.923C321.299 332.822 321.826 331.979 322.555 331.393C323.285 330.808 324.258 330.515 325.475 330.515C326.615 330.515 327.552 330.808 328.288 331.393C329.03 331.973 329.58 332.813 329.938 333.913C330.296 335.007 330.475 336.328 330.475 337.878ZM323.493 337.878C323.493 338.965 323.552 339.873 323.669 340.602C323.792 341.325 323.998 341.869 324.284 342.233C324.57 342.598 324.968 342.78 325.475 342.78C325.977 342.78 326.371 342.601 326.657 342.243C326.95 341.878 327.158 341.335 327.282 340.612C327.406 339.883 327.468 338.972 327.468 337.878C327.468 336.791 327.406 335.882 327.282 335.153C327.158 334.424 326.95 333.877 326.657 333.513C326.371 333.142 325.977 332.956 325.475 332.956C324.968 332.956 324.57 333.142 324.284 333.513C323.998 333.877 323.792 334.424 323.669 335.153C323.552 335.882 323.493 336.791 323.493 337.878Z" fill="#7B61FF"/>
<rect x="263.955" y="143.161" width="103.132" height="103.132" rx="5.5" fill="#7B61FF" fill-opacity="0.17" stroke="#7B61FF"/>
<path d="M290.335 188.078C291.63 188.078 292.698 188.234 293.538 188.547C294.384 188.859 295.013 189.331 295.423 189.963C295.833 190.594 296.038 191.392 296.038 192.355C296.038 193.006 295.914 193.576 295.667 194.064C295.419 194.553 295.094 194.966 294.69 195.305C294.287 195.643 293.85 195.92 293.382 196.135L297.581 202.355H294.221L290.813 196.877H289.202V202.355H286.175V188.078H290.335ZM290.12 190.559H289.202V194.416H290.179C291.181 194.416 291.897 194.25 292.327 193.918C292.763 193.579 292.981 193.085 292.981 192.434C292.981 191.756 292.747 191.275 292.278 190.988C291.816 190.702 291.096 190.559 290.12 190.559ZM309.518 202.355L308.483 198.957H303.278L302.243 202.355H298.981L304.02 188.019H307.721L312.78 202.355H309.518ZM307.76 196.418L306.725 193.098C306.66 192.876 306.572 192.593 306.461 192.248C306.357 191.896 306.25 191.542 306.139 191.184C306.035 190.819 305.95 190.503 305.885 190.236C305.82 190.503 305.729 190.835 305.612 191.232C305.501 191.623 305.394 191.994 305.289 192.346C305.185 192.697 305.11 192.948 305.065 193.098L304.039 196.418H307.76ZM328.652 202.355H324.805L318.594 191.555H318.506C318.532 192.004 318.555 192.456 318.574 192.912C318.594 193.368 318.613 193.824 318.633 194.279C318.652 194.728 318.672 195.181 318.691 195.637V202.355H315.986V188.078H319.805L326.006 198.771H326.074C326.061 198.329 326.045 197.889 326.025 197.453C326.006 197.017 325.986 196.581 325.967 196.144C325.954 195.708 325.941 195.272 325.928 194.836V188.078H328.652V202.355ZM345.502 195.08C345.502 196.688 345.192 198.032 344.574 199.113C343.962 200.187 343.073 200.998 341.908 201.545C340.742 202.085 339.339 202.355 337.699 202.355H333.656V188.078H338.138C339.636 188.078 340.935 188.345 342.035 188.879C343.135 189.406 343.988 190.191 344.593 191.232C345.199 192.268 345.502 193.55 345.502 195.08ZM342.357 195.158C342.357 194.103 342.201 193.238 341.888 192.56C341.582 191.877 341.127 191.372 340.521 191.047C339.922 190.721 339.18 190.559 338.295 190.559H336.683V199.855H337.982C339.46 199.855 340.557 199.462 341.273 198.674C341.996 197.886 342.357 196.714 342.357 195.158Z" fill="#7B61FF"/>
<path d="M263.455 196.81L258.455 193.923V199.697L263.455 196.81ZM173.901 197.31H174.919V196.31H173.901V197.31ZM176.954 197.31H178.989V196.31H176.954V197.31ZM181.024 197.31H183.06V196.31H181.024V197.31ZM185.095 197.31H187.13V196.31H185.095V197.31ZM189.166 197.31H191.201V196.31H189.166V197.31ZM193.236 197.31H195.272V196.31H193.236V197.31ZM197.307 197.31H199.342V196.31H197.307V197.31ZM201.378 197.31H203.413V196.31H201.378V197.31ZM205.448 197.31H207.483V196.31H205.448V197.31ZM209.519 197.31H211.554V196.31H209.519V197.31ZM213.589 197.31H215.625V196.31H213.589V197.31ZM217.66 197.31H219.695V196.31H217.66V197.31ZM221.731 197.31H223.766V196.31H221.731V197.31ZM225.801 197.31H227.837V196.31H225.801V197.31ZM229.872 197.31H231.907V196.31H229.872V197.31ZM233.943 197.31H235.978V196.31H233.943V197.31ZM238.013 197.31H240.048V196.31H238.013V197.31ZM242.084 197.31H244.119V196.31H242.084V197.31ZM246.154 197.31H248.19V196.31H246.154V197.31ZM250.225 197.31H252.26V196.31H250.225V197.31ZM254.296 197.31H256.331V196.31H254.296V197.31ZM258.366 197.31H260.402V196.31H258.366V197.31ZM263.455 196.81L253.455 191.036V202.583L263.455 196.81ZM173.901 197.81H174.919V195.81H173.901V197.81ZM176.954 197.81H178.989V195.81H176.954V197.81ZM181.024 197.81H183.06V195.81H181.024V197.81ZM185.095 197.81H187.13V195.81H185.095V197.81ZM189.166 197.81H191.201V195.81H189.166V197.81ZM193.236 197.81H195.272V195.81H193.236V197.81ZM197.307 197.81H199.342V195.81H197.307V197.81ZM201.378 197.81H203.413V195.81H201.378V197.81ZM205.448 197.81H207.483V195.81H205.448V197.81ZM209.519 197.81H211.554V195.81H209.519V197.81ZM213.589 197.81H215.625V195.81H213.589V197.81ZM217.66 197.81H219.695V195.81H217.66V197.81ZM221.731 197.81H223.766V195.81H221.731V197.81ZM225.801 197.81H227.837V195.81H225.801V197.81ZM229.872 197.81H231.907V195.81H229.872V197.81ZM233.943 197.81H235.978V195.81H233.943V197.81ZM238.013 197.81H240.048V195.81H238.013V197.81ZM242.084 197.81H244.119V195.81H242.084V197.81ZM246.154 197.81H248.19V195.81H246.154V197.81ZM250.225 197.81H252.26V195.81H250.225V197.81ZM254.296 197.81H256.331V195.81H254.296V197.81ZM258.366 197.81H260.402V195.81H258.366V197.81Z" fill="#BCC2C4"/>
<line x1="219.178" y1="54.1471" x2="220.163" y2="346.759" stroke="#BCC2C4" stroke-dasharray="2 2"/>
<line x1="415.988" y1="52.0661" x2="415.988" y2="196.81" stroke="#BCC2C4" stroke-dasharray="2 2"/>
<path d="M261.372 54.1488L256.372 51.262V57.0355L261.372 54.1488ZM218.678 54.6488H219.648V53.6488H218.678V54.6488ZM221.589 54.6488H223.529V53.6488H221.589V54.6488ZM225.47 54.6488H227.411V53.6488H225.47V54.6488ZM229.351 54.6488H231.292V53.6488H229.351V54.6488ZM233.233 54.6488H235.173V53.6488H233.233V54.6488ZM237.114 54.6488H239.054V53.6488H237.114V54.6488ZM240.995 54.6488H242.936V53.6488H240.995V54.6488ZM244.876 54.6488H246.817V53.6488H244.876V54.6488ZM248.758 54.6488H250.698V53.6488H248.758V54.6488ZM252.639 54.6488H254.58V53.6488H252.639V54.6488ZM256.52 54.6488H258.461V53.6488H256.52V54.6488ZM261.372 54.1488L251.372 48.3753V59.9223L261.372 54.1488ZM218.678 55.1488H219.648V53.1488H218.678V55.1488ZM221.589 55.1488H223.529V53.1488H221.589V55.1488ZM225.47 55.1488H227.411V53.1488H225.47V55.1488ZM229.351 55.1488H231.292V53.1488H229.351V55.1488ZM233.233 55.1488H235.173V53.1488H233.233V55.1488ZM237.114 55.1488H239.054V53.1488H237.114V55.1488ZM240.995 55.1488H242.936V53.1488H240.995V55.1488ZM244.876 55.1488H246.817V53.1488H244.876V55.1488ZM248.758 55.1488H250.698V53.1488H248.758V55.1488ZM252.639 55.1488H254.58V53.1488H252.639V55.1488ZM256.52 55.1488H258.461V53.1488H256.52V55.1488Z" fill="#BCC2C4"/>
<line x1="865.839" y1="74.9752" x2="865.839" y2="320.727" stroke="#BCC2C4" stroke-dasharray="2 2"/>
<path d="M908.033 74.9752L903.033 72.0884V77.8619L908.033 74.9752ZM865.339 75.4752H866.309V74.4752H865.339V75.4752ZM868.25 75.4752H870.19V74.4752H868.25V75.4752ZM872.131 75.4752H874.072V74.4752H872.131V75.4752ZM876.012 75.4752H877.953V74.4752H876.012V75.4752ZM879.894 75.4752H881.834V74.4752H879.894V75.4752ZM883.775 75.4752H885.716V74.4752H883.775V75.4752ZM887.656 75.4752H889.597V74.4752H887.656V75.4752ZM891.538 75.4752H893.478V74.4752H891.538V75.4752ZM895.419 75.4752H897.36V74.4752H895.419V75.4752ZM899.3 75.4752H901.241V74.4752H899.3V75.4752ZM903.181 75.4752H905.122V74.4752H903.181V75.4752ZM908.033 74.9752L898.033 69.2017V80.7487L908.033 74.9752ZM865.339 75.9752H866.309V73.9752H865.339V75.9752ZM868.25 75.9752H870.19V73.9752H868.25V75.9752ZM872.131 75.9752H874.072V73.9752H872.131V75.9752ZM876.012 75.9752H877.953V73.9752H876.012V75.9752ZM879.894 75.9752H881.834V73.9752H879.894V75.9752ZM883.775 75.9752H885.716V73.9752H883.775V75.9752ZM887.656 75.9752H889.597V73.9752H887.656V75.9752ZM891.538 75.9752H893.478V73.9752H891.538V75.9752ZM895.419 75.9752H897.36V73.9752H895.419V75.9752ZM899.3 75.9752H901.241V73.9752H899.3V75.9752ZM903.181 75.9752H905.122V73.9752H903.181V75.9752Z" fill="#BCC2C4"/>
<path d="M908.033 320.727L903.033 317.841V323.614L908.033 320.727ZM865.339 321.227H866.309V320.227H865.339V321.227ZM868.25 321.227H870.19V320.227H868.25V321.227ZM872.131 321.227H874.072V320.227H872.131V321.227ZM876.012 321.227H877.953V320.227H876.012V321.227ZM879.894 321.227H881.834V320.227H879.894V321.227ZM883.775 321.227H885.716V320.227H883.775V321.227ZM887.656 321.227H889.597V320.227H887.656V321.227ZM891.538 321.227H893.478V320.227H891.538V321.227ZM895.419 321.227H897.36V320.227H895.419V321.227ZM899.3 321.227H901.241V320.227H899.3V321.227ZM903.181 321.227H905.122V320.227H903.181V321.227ZM908.033 320.727L898.033 314.954V326.501L908.033 320.727ZM865.339 321.727H866.309V319.727H865.339V321.727ZM868.25 321.727H870.19V319.727H868.25V321.727ZM872.131 321.727H874.072V319.727H872.131V321.727ZM876.012 321.727H877.953V319.727H876.012V321.727ZM879.894 321.727H881.834V319.727H879.894V321.727ZM883.775 321.727H885.716V319.727H883.775V321.727ZM887.656 321.727H889.597V319.727H887.656V321.727ZM891.538 321.727H893.478V319.727H891.538V321.727ZM895.419 321.727H897.36V319.727H895.419V321.727ZM899.3 321.727H901.241V319.727H899.3V321.727ZM903.181 321.727H905.122V319.727H903.181V321.727Z" fill="#BCC2C4"/>
<path d="M262.413 346.76L257.413 343.874V349.647L262.413 346.76ZM219.719 347.26H220.689V346.26H219.719V347.26ZM222.63 347.26H224.571V346.26H222.63V347.26ZM226.511 347.26H228.452V346.26H226.511V347.26ZM230.393 347.26H232.333V346.26H230.393V347.26ZM234.274 347.26H236.215V346.26H234.274V347.26ZM238.155 347.26H240.096V346.26H238.155V347.26ZM242.036 347.26H243.977V346.26H242.036V347.26ZM245.918 347.26H247.858V346.26H245.918V347.26ZM249.799 347.26H251.74V346.26H249.799V347.26ZM253.68 347.26H255.621V346.26H253.68V347.26ZM257.562 347.26H259.502V346.26H257.562V347.26ZM262.413 346.76L252.413 340.987V352.534L262.413 346.76ZM219.719 347.76H220.689V345.76H219.719V347.76ZM222.63 347.76H224.571V345.76H222.63V347.76ZM226.511 347.76H228.452V345.76H226.511V347.76ZM230.393 347.76H232.333V345.76H230.393V347.76ZM234.274 347.76H236.215V345.76H234.274V347.76ZM238.155 347.76H240.096V345.76H238.155V347.76ZM242.036 347.76H243.977V345.76H242.036V347.76ZM245.918 347.76H247.858V345.76H245.918V347.76ZM249.799 347.76H251.74V345.76H249.799V347.76ZM253.68 347.76H255.621V345.76H253.68V347.76ZM257.562 347.76H259.502V345.76H257.562V347.76Z" fill="#BCC2C4"/>
<line x1="367.587" y1="51.5661" x2="416.529" y2="51.5661" stroke="#BCC2C4" stroke-dasharray="2 2"/>
<line x1="651.327" y1="118.711" x2="651.327" y2="345.719" stroke="#BCC2C4" stroke-dasharray="2 2"/>
<line x1="560.231" y1="119.252" x2="651.868" y2="119.252" stroke="#BCC2C4" stroke-dasharray="2 2"/>
<line x1="415.488" y1="119.252" x2="496.711" y2="119.252" stroke="#BCC2C4" stroke-dasharray="2 2"/>
<line x1="367.587" y1="345.219" x2="650.826" y2="345.219" stroke="#BCC2C4" stroke-dasharray="2 2"/>
<line x1="651.868" y1="208.806" x2="726.843" y2="208.806" stroke="#BCC2C4" stroke-dasharray="2 2"/>
<line x1="790.364" y1="208.806" x2="865.339" y2="208.806" stroke="#BCC2C4" stroke-dasharray="2 2"/>
<line x1="367.587" y1="196.31" x2="416.529" y2="196.31" stroke="#BCC2C4" stroke-dasharray="2 2"/>
<path d="M558.062 116.712C560.415 118.055 560.415 121.449 558.062 122.792L502.185 154.681C499.852 156.013 496.951 154.328 496.951 151.642V87.8626C496.951 85.176 499.852 83.4912 502.185 84.8228L558.062 116.712Z" fill="#FFC93F" fill-opacity="0.2" stroke="#FFC93F"/>
<g clip-path="url(#clip0_7_1653)">
<path d="M515.777 117.617L523.431 125.969L524.525 127.156C525.545 128.27 527.201 126.614 526.18 125.5L518.516 117.149L517.433 115.951C516.413 114.837 514.757 116.503 515.777 117.617Z" fill="#FFC93F"/>
<path d="M524.524 115.951L516.86 124.313L515.767 125.5C514.746 126.614 516.402 128.27 517.423 127.156L525.087 118.804L526.18 117.617C527.201 116.503 525.545 114.847 524.524 115.962V115.951Z" fill="#FFC93F"/>
</g>
<path d="M788.194 206.266C790.548 207.609 790.548 211.002 788.194 212.346L732.318 244.235C729.984 245.567 727.083 243.882 727.083 241.195V177.416C727.083 174.73 729.984 173.045 732.318 174.377L788.194 206.266Z" fill="#FFC93F" fill-opacity="0.2" stroke="#FFC93F"/>
<path d="M753.109 206.971H758.969V209.579H753.109V215.497H750.502V209.579H744.657V206.971H750.502V200.995H753.109V206.971Z" fill="#FFC93F"/>
<path d="M984.984 41.1509C984.984 41.9972 984.779 42.7329 984.368 43.3579C983.958 43.9829 983.359 44.4647 982.572 44.8032C981.79 45.1418 980.84 45.311 979.72 45.311C979.225 45.311 978.74 45.2785 978.265 45.2134C977.796 45.1483 977.344 45.0539 976.908 44.9302C976.478 44.8 976.068 44.6405 975.677 44.4517V41.6392C976.354 41.9386 977.057 42.2088 977.786 42.4497C978.516 42.6906 979.238 42.811 979.954 42.811C980.449 42.811 980.846 42.7459 981.146 42.6157C981.452 42.4855 981.673 42.3065 981.81 42.0786C981.947 41.8508 982.015 41.5903 982.015 41.2974C982.015 40.9393 981.895 40.6333 981.654 40.3794C981.413 40.1255 981.081 39.8879 980.658 39.6665C980.241 39.4452 979.769 39.2075 979.242 38.9536C978.91 38.7974 978.548 38.6086 978.158 38.3872C977.767 38.1594 977.396 37.8827 977.044 37.5571C976.693 37.2316 976.403 36.8377 976.175 36.3755C975.954 35.9067 975.843 35.3469 975.843 34.6958C975.843 33.8429 976.038 33.1138 976.429 32.5083C976.82 31.9028 977.376 31.4406 978.099 31.1216C978.828 30.7961 979.688 30.6333 980.677 30.6333C981.419 30.6333 982.126 30.7212 982.796 30.897C983.473 31.0663 984.18 31.3136 984.915 31.6392L983.939 33.9927C983.281 33.7258 982.692 33.5207 982.171 33.3774C981.65 33.2277 981.12 33.1528 980.579 33.1528C980.202 33.1528 979.88 33.2147 979.613 33.3384C979.346 33.4556 979.144 33.6248 979.007 33.8462C978.87 34.061 978.802 34.3117 978.802 34.5982C978.802 34.9367 978.9 35.2232 979.095 35.4575C979.297 35.6854 979.596 35.9067 979.993 36.1216C980.397 36.3364 980.898 36.5871 981.497 36.8735C982.227 37.2186 982.848 37.5799 983.363 37.9575C983.883 38.3286 984.284 38.7681 984.564 39.2759C984.844 39.7772 984.984 40.4022 984.984 41.1509ZM995.036 33.1528C994.457 33.1528 993.942 33.2668 993.493 33.4946C993.05 33.716 992.676 34.0383 992.37 34.4614C992.071 34.8846 991.843 35.3957 991.686 35.9946C991.53 36.5936 991.452 37.2674 991.452 38.0161C991.452 39.0252 991.576 39.8879 991.823 40.604C992.077 41.3136 992.468 41.8573 992.995 42.2349C993.522 42.606 994.203 42.7915 995.036 42.7915C995.616 42.7915 996.195 42.7264 996.774 42.5962C997.36 42.466 997.995 42.2804 998.679 42.0396V44.5786C998.047 44.839 997.425 45.0246 996.813 45.1353C996.201 45.2524 995.515 45.311 994.753 45.311C993.282 45.311 992.071 45.0083 991.12 44.4028C990.176 43.7909 989.476 42.938 989.02 41.8442C988.565 40.744 988.337 39.4614 988.337 37.9966C988.337 36.9159 988.483 35.9263 988.776 35.0278C989.069 34.1294 989.499 33.3514 990.065 32.6939C990.632 32.0363 991.332 31.5285 992.165 31.1704C992.998 30.8123 993.955 30.6333 995.036 30.6333C995.746 30.6333 996.455 30.7245 997.165 30.9067C997.881 31.0825 998.565 31.3267 999.216 31.6392L998.239 34.1001C997.705 33.8462 997.168 33.6248 996.628 33.436C996.088 33.2472 995.557 33.1528 995.036 33.1528ZM1011.87 45.1157L1010.83 41.7173H1005.63L1004.59 45.1157H1001.33L1006.37 30.7798H1010.07L1015.13 45.1157H1011.87ZM1010.11 39.1782L1009.07 35.8579C1009.01 35.6366 1008.92 35.3534 1008.81 35.0083C1008.7 34.6567 1008.6 34.3019 1008.49 33.9439C1008.38 33.5793 1008.3 33.2635 1008.23 32.9966C1008.17 33.2635 1008.08 33.5955 1007.96 33.9927C1007.85 34.3833 1007.74 34.7544 1007.64 35.106C1007.53 35.4575 1007.46 35.7082 1007.41 35.8579L1006.39 39.1782H1010.11ZM1023.84 45.1157H1020.81V33.3579H1016.94V30.8384H1027.72V33.3579H1023.84V45.1157ZM1036.82 45.1157H1033.8V33.3579H1029.92V30.8384H1040.7V33.3579H1036.82V45.1157ZM1052.52 45.1157H1044.3V30.8384H1052.52V33.3189H1047.33V36.4536H1052.16V38.9341H1047.33V42.6157H1052.52V45.1157ZM1061.07 30.8384C1062.36 30.8384 1063.43 30.9946 1064.27 31.3071C1065.12 31.6196 1065.75 32.0916 1066.16 32.7232C1066.57 33.3547 1066.77 34.1522 1066.77 35.1157C1066.77 35.7668 1066.65 36.3364 1066.4 36.8247C1066.15 37.313 1065.83 37.7264 1065.42 38.0649C1065.02 38.4035 1064.58 38.6802 1064.12 38.895L1068.32 45.1157H1064.96L1061.55 39.6372H1059.94V45.1157H1056.91V30.8384H1061.07ZM1060.85 33.3189H1059.94V37.1763H1060.91C1061.92 37.1763 1062.63 37.0103 1063.06 36.6782C1063.5 36.3397 1063.72 35.8449 1063.72 35.1939C1063.72 34.5168 1063.48 34.035 1063.01 33.7485C1062.55 33.4621 1061.83 33.3189 1060.85 33.3189Z" fill="#99F5FF"/>
<path d="M968.503 292.95H965.485V286.788H959.831V292.95H956.803V278.673H959.831V284.269H965.485V278.673H968.503V292.95ZM973.516 292.95V278.673H976.543V292.95H973.516ZM989.965 288.986C989.965 289.832 989.76 290.568 989.349 291.193C988.939 291.818 988.34 292.299 987.553 292.638C986.771 292.976 985.821 293.146 984.701 293.146C984.206 293.146 983.721 293.113 983.246 293.048C982.777 292.983 982.325 292.889 981.888 292.765C981.459 292.635 981.049 292.475 980.658 292.286V289.474C981.335 289.773 982.038 290.044 982.767 290.284C983.497 290.525 984.219 290.646 984.935 290.646C985.43 290.646 985.827 290.581 986.127 290.45C986.433 290.32 986.654 290.141 986.791 289.913C986.928 289.685 986.996 289.425 986.996 289.132C986.996 288.774 986.875 288.468 986.635 288.214C986.394 287.96 986.062 287.723 985.638 287.501C985.222 287.28 984.75 287.042 984.222 286.788C983.89 286.632 983.529 286.443 983.138 286.222C982.748 285.994 982.377 285.717 982.025 285.392C981.674 285.066 981.384 284.672 981.156 284.21C980.935 283.741 980.824 283.182 980.824 282.531C980.824 281.678 981.019 280.948 981.41 280.343C981.801 279.738 982.357 279.275 983.08 278.956C983.809 278.631 984.668 278.468 985.658 278.468C986.4 278.468 987.107 278.556 987.777 278.732C988.454 278.901 989.161 279.148 989.896 279.474L988.92 281.827C988.262 281.56 987.673 281.355 987.152 281.212C986.631 281.062 986.101 280.988 985.56 280.988C985.183 280.988 984.86 281.049 984.594 281.173C984.327 281.29 984.125 281.46 983.988 281.681C983.851 281.896 983.783 282.146 983.783 282.433C983.783 282.771 983.881 283.058 984.076 283.292C984.278 283.52 984.577 283.741 984.974 283.956C985.378 284.171 985.879 284.422 986.478 284.708C987.208 285.053 987.829 285.415 988.344 285.792C988.864 286.163 989.265 286.603 989.545 287.111C989.825 287.612 989.965 288.237 989.965 288.986ZM999.46 292.95H996.433V281.193H992.556V278.673H1003.34V281.193H999.46V292.95ZM1019.89 285.792C1019.89 286.892 1019.76 287.895 1019.48 288.8C1019.21 289.698 1018.79 290.473 1018.23 291.124C1017.68 291.775 1016.98 292.277 1016.12 292.628C1015.27 292.973 1014.26 293.146 1013.1 293.146C1011.93 293.146 1010.92 292.973 1010.07 292.628C1009.22 292.277 1008.51 291.775 1007.95 291.124C1007.4 290.473 1006.98 289.695 1006.71 288.79C1006.44 287.885 1006.3 286.879 1006.3 285.773C1006.3 284.295 1006.54 283.009 1007.02 281.915C1007.51 280.815 1008.26 279.962 1009.27 279.357C1010.28 278.751 1011.56 278.448 1013.12 278.448C1014.67 278.448 1015.94 278.751 1016.93 279.357C1017.94 279.962 1018.68 280.815 1019.16 281.915C1019.65 283.016 1019.89 284.308 1019.89 285.792ZM1009.47 285.792C1009.47 286.788 1009.6 287.648 1009.84 288.37C1010.1 289.087 1010.49 289.64 1011.03 290.031C1011.56 290.415 1012.25 290.607 1013.1 290.607C1013.96 290.607 1014.65 290.415 1015.19 290.031C1015.72 289.64 1016.11 289.087 1016.35 288.37C1016.6 287.648 1016.72 286.788 1016.72 285.792C1016.72 284.295 1016.44 283.116 1015.88 282.257C1015.32 281.398 1014.4 280.968 1013.12 280.968C1012.26 280.968 1011.57 281.163 1011.03 281.554C1010.49 281.938 1010.1 282.491 1009.84 283.214C1009.6 283.93 1009.47 284.79 1009.47 285.792ZM1029.67 284.933H1035.34V292.335C1034.59 292.583 1033.81 292.781 1033 292.931C1032.2 293.074 1031.28 293.146 1030.26 293.146C1028.84 293.146 1027.63 292.866 1026.65 292.306C1025.66 291.746 1024.9 290.919 1024.39 289.825C1023.87 288.732 1023.62 287.387 1023.62 285.792C1023.62 284.295 1023.9 282.999 1024.48 281.906C1025.06 280.812 1025.9 279.965 1027.01 279.366C1028.12 278.767 1029.48 278.468 1031.08 278.468C1031.83 278.468 1032.58 278.549 1033.32 278.712C1034.05 278.875 1034.72 279.087 1035.32 279.347L1034.31 281.769C1033.87 281.547 1033.38 281.362 1032.82 281.212C1032.26 281.062 1031.67 280.988 1031.06 280.988C1030.18 280.988 1029.42 281.189 1028.76 281.593C1028.12 281.997 1027.62 282.563 1027.26 283.292C1026.91 284.015 1026.73 284.868 1026.73 285.851C1026.73 286.782 1026.86 287.609 1027.11 288.331C1027.37 289.047 1027.77 289.611 1028.32 290.021C1028.86 290.424 1029.57 290.626 1030.45 290.626C1030.88 290.626 1031.24 290.607 1031.54 290.568C1031.84 290.522 1032.12 290.476 1032.38 290.431V287.452H1029.67V284.933ZM1044.3 278.673C1045.6 278.673 1046.67 278.829 1047.51 279.142C1048.35 279.454 1048.98 279.926 1049.39 280.558C1049.8 281.189 1050.01 281.987 1050.01 282.95C1050.01 283.601 1049.88 284.171 1049.64 284.659C1049.39 285.148 1049.06 285.561 1048.66 285.9C1048.26 286.238 1047.82 286.515 1047.35 286.73L1051.55 292.95H1048.19L1044.78 287.472H1043.17V292.95H1040.14V278.673H1044.3ZM1044.09 281.154H1043.17V285.011H1044.15C1045.15 285.011 1045.87 284.845 1046.3 284.513C1046.73 284.174 1046.95 283.68 1046.95 283.029C1046.95 282.351 1046.72 281.87 1046.25 281.583C1045.79 281.297 1045.07 281.154 1044.09 281.154ZM1063.49 292.95L1062.45 289.552H1057.25L1056.21 292.95H1052.95L1057.99 278.615H1061.69L1066.75 292.95H1063.49ZM1061.73 287.013L1060.7 283.693C1060.63 283.471 1060.54 283.188 1060.43 282.843C1060.33 282.491 1060.22 282.137 1060.11 281.779C1060.01 281.414 1059.92 281.098 1059.86 280.831C1059.79 281.098 1059.7 281.43 1059.58 281.827C1059.47 282.218 1059.36 282.589 1059.26 282.941C1059.16 283.292 1059.08 283.543 1059.03 283.693L1058.01 287.013H1061.73ZM1076 292.95L1072.56 281.749H1072.48C1072.49 282.016 1072.51 282.42 1072.53 282.96C1072.57 283.494 1072.6 284.064 1072.62 284.669C1072.65 285.275 1072.66 285.822 1072.66 286.31V292.95H1069.96V278.673H1074.08L1077.46 289.591H1077.52L1081.1 278.673H1085.22V292.95H1082.4V286.193C1082.4 285.743 1082.4 285.226 1082.42 284.64C1082.44 284.054 1082.46 283.497 1082.49 282.97C1082.51 282.436 1082.53 282.036 1082.54 281.769H1082.46L1078.77 292.95H1076Z" fill="#99F5FF"/>
<g clip-path="url(#clip1_7_1653)">
<path d="M1031.19 104.42C1033.98 104.42 1036.24 102.157 1036.24 99.3665C1036.24 96.5758 1033.98 94.3134 1031.19 94.3134C1028.41 94.3134 1026.14 96.5758 1026.14 99.3665C1026.14 102.157 1028.41 104.42 1031.19 104.42Z" fill="#99F5FF"/>
<path d="M1039.05 98.8051C1041.84 98.8051 1044.1 96.5427 1044.1 93.7519C1044.1 90.9612 1041.84 88.6988 1039.05 88.6988C1036.26 88.6988 1034 90.9612 1034 93.7519C1034 96.5427 1036.26 98.8051 1039.05 98.8051Z" fill="#99F5FF"/>
<path d="M1039.05 110.034C1041.84 110.034 1044.1 107.772 1044.1 104.981C1044.1 102.19 1041.84 99.928 1039.05 99.928C1036.26 99.928 1034 102.19 1034 104.981C1034 107.772 1036.26 110.034 1039.05 110.034Z" fill="#99F5FF"/>
<path d="M1043.54 110.034C1046.33 110.034 1048.59 107.772 1048.59 104.981C1048.59 102.19 1046.33 99.928 1043.54 99.928C1040.75 99.928 1038.49 102.19 1038.49 104.981C1038.49 107.772 1040.75 110.034 1043.54 110.034Z" fill="#99F5FF"/>
<path opacity="0.9" d="M1060.06 95.9416C1062.85 95.9416 1065.11 93.6793 1065.11 90.8885C1065.11 88.0977 1062.85 85.8353 1060.06 85.8353C1057.27 85.8353 1055.01 88.0977 1055.01 90.8885C1055.01 93.6793 1057.27 95.9416 1060.06 95.9416Z" fill="#99F5FF"/>
<path opacity="0.9" d="M1036.81 90.9446C1039.59 90.9446 1041.85 88.6823 1041.85 85.8915C1041.85 83.1007 1039.59 80.8383 1036.81 80.8383C1034.02 80.8383 1031.76 83.1007 1031.76 85.8915C1031.76 88.6823 1034.02 90.9446 1036.81 90.9446Z" fill="#99F5FF"/>
<path opacity="0.75" d="M1033.44 83.0842C1036.23 83.0842 1038.49 80.8218 1038.49 78.031C1038.49 75.2403 1036.23 72.9779 1033.44 72.9779C1030.65 72.9779 1028.39 75.2403 1028.39 78.031C1028.39 80.8218 1030.65 83.0842 1033.44 83.0842Z" fill="#99F5FF"/>
<path opacity="0.75" d="M1036.81 77.4696C1039.59 77.4696 1041.85 75.2072 1041.85 72.4164C1041.85 69.6257 1039.59 67.3633 1036.81 67.3633C1034.02 67.3633 1031.76 69.6257 1031.76 72.4164C1031.76 75.2072 1034.02 77.4696 1036.81 77.4696Z" fill="#99F5FF"/>
<path opacity="0.59" d="M1042.42 72.9779C1045.2 72.9779 1047.47 70.7155 1047.47 67.9248C1047.47 65.134 1045.2 62.8716 1042.42 62.8716C1039.63 62.8716 1037.37 65.134 1037.37 67.9248C1037.37 70.7155 1039.63 72.9779 1042.42 72.9779Z" fill="#99F5FF"/>
<path opacity="0.59" d="M981.506 109.417C984.294 109.417 986.555 107.154 986.555 104.364C986.555 101.573 984.294 99.3104 981.506 99.3104C978.717 99.3104 976.456 101.573 976.456 104.364C976.456 107.154 978.717 109.417 981.506 109.417Z" fill="#99F5FF"/>
<path opacity="0.59" d="M995.958 101.182C998.747 101.182 1001.01 98.9196 1001.01 96.1288C1001.01 93.338 998.747 91.0757 995.958 91.0757C993.17 91.0757 990.909 93.338 990.909 96.1288C990.909 98.9196 993.17 101.182 995.958 101.182Z" fill="#99F5FF"/>
<path opacity="0.59" d="M1000.9 81.9613C1003.69 81.9613 1005.95 79.6989 1005.95 76.9081C1005.95 74.1173 1003.69 71.855 1000.9 71.855C998.108 71.855 995.847 74.1173 995.847 76.9081C995.847 79.6989 998.108 81.9613 1000.9 81.9613Z" fill="#99F5FF"/>
<path opacity="0.59" d="M1011 108.911C1013.78 108.911 1016.05 106.649 1016.05 103.858C1016.05 101.067 1013.78 98.8051 1011 98.8051C1008.21 98.8051 1005.95 101.067 1005.95 103.858C1005.95 106.649 1008.21 108.911 1011 108.911Z" fill="#99F5FF"/>
<path opacity="0.59" d="M1015.48 104.42C1018.27 104.42 1020.53 102.157 1020.53 99.3665C1020.53 96.5758 1018.27 94.3134 1015.48 94.3134C1012.7 94.3134 1010.43 96.5758 1010.43 99.3665C1010.43 102.157 1012.7 104.42 1015.48 104.42Z" fill="#99F5FF"/>
<path opacity="0.59" d="M1022.22 104.42C1025.01 104.42 1027.27 102.157 1027.27 99.3665C1027.27 96.5758 1025.01 94.3134 1022.22 94.3134C1019.43 94.3134 1017.17 96.5758 1017.17 99.3665C1017.17 102.157 1019.43 104.42 1022.22 104.42Z" fill="#99F5FF"/>
<path opacity="0.59" d="M1015.48 72.9779C1018.27 72.9779 1020.53 70.7155 1020.53 67.9248C1020.53 65.134 1018.27 62.8716 1015.48 62.8716C1012.7 62.8716 1010.43 65.134 1010.43 67.9248C1010.43 70.7155 1012.7 72.9779 1015.48 72.9779Z" fill="#99F5FF"/>
<path opacity="0.59" d="M956.818 94.8187C959.607 94.8187 961.868 92.5563 961.868 89.7656C961.868 86.9748 959.607 84.7124 956.818 84.7124C954.029 84.7124 951.769 86.9748 951.769 89.7656C951.769 92.5563 954.029 94.8187 956.818 94.8187Z" fill="#99F5FF"/>
<path opacity="0.59" d="M1011.8 121.769C1014.59 121.769 1016.85 119.506 1016.85 116.716C1016.85 113.925 1014.59 111.663 1011.8 111.663C1009.01 111.663 1006.75 113.925 1006.75 116.716C1006.75 119.506 1009.01 121.769 1011.8 121.769Z" fill="#99F5FF"/>
<path opacity="0.59" d="M976.89 83.1591C979.679 83.1591 981.94 80.8967 981.94 78.1059C981.94 75.3151 979.679 73.0528 976.89 73.0528C974.101 73.0528 971.84 75.3151 971.84 78.1059C971.84 80.8967 974.101 83.1591 976.89 83.1591Z" fill="#99F5FF"/>
<path opacity="0.59" d="M1004.99 78.1527C1007.78 78.1527 1010.04 75.8903 1010.04 73.0995C1010.04 70.3088 1007.78 68.0464 1004.99 68.0464C1002.2 68.0464 999.941 70.3088 999.941 73.0995C999.941 75.8903 1002.2 78.1527 1004.99 78.1527Z" fill="#99F5FF"/>
<path opacity="0.59" d="M975.895 77.9749C978.684 77.9749 980.945 75.7125 980.945 72.9218C980.945 70.131 978.684 67.8686 975.895 67.8686C973.106 67.8686 970.845 70.131 970.845 72.9218C970.845 75.7125 973.106 77.9749 975.895 77.9749Z" fill="#99F5FF"/>
<path opacity="0.59" d="M1033.44 129.124C1036.23 129.124 1038.49 126.862 1038.49 124.071C1038.49 121.28 1036.23 119.018 1033.44 119.018C1030.65 119.018 1028.39 121.28 1028.39 124.071C1028.39 126.862 1030.65 129.124 1033.44 129.124Z" fill="#99F5FF"/>
<path opacity="0.59" d="M1070.63 101.13C1073.42 101.13 1075.68 98.8672 1075.68 96.0764C1075.68 93.2856 1073.42 91.0232 1070.63 91.0232C1067.84 91.0232 1065.58 93.2856 1065.58 96.0764C1065.58 98.8672 1067.84 101.13 1070.63 101.13Z" fill="#99F5FF"/>
<path opacity="0.59" d="M1085.21 92.1462C1088 92.1462 1090.26 89.8838 1090.26 87.093C1090.26 84.3022 1088 82.0399 1085.21 82.0399C1082.43 82.0399 1080.17 84.3022 1080.17 87.093C1080.17 89.8838 1082.43 92.1462 1085.21 92.1462Z" fill="#99F5FF"/>
<path opacity="0.59" d="M1048.98 80.3106C1051.77 80.3106 1054.03 78.0482 1054.03 75.2574C1054.03 72.4667 1051.77 70.2043 1048.98 70.2043C1046.19 70.2043 1043.93 72.4667 1043.93 75.2574C1043.93 78.0482 1046.19 80.3106 1048.98 80.3106Z" fill="#99F5FF"/>
<path opacity="0.59" d="M1070.16 106.048C1072.94 106.048 1075.21 103.786 1075.21 100.995C1075.21 98.204 1072.94 95.9416 1070.16 95.9416C1067.37 95.9416 1065.11 98.204 1065.11 100.995C1065.11 103.786 1067.37 106.048 1070.16 106.048Z" fill="#99F5FF"/>
<path opacity="0.59" d="M1045.61 97.1544C1048.4 97.1544 1050.66 94.892 1050.66 92.1012C1050.66 89.3105 1048.4 87.0481 1045.61 87.0481C1042.83 87.0481 1040.56 89.3105 1040.56 92.1012C1040.56 94.892 1042.83 97.1544 1045.61 97.1544Z" fill="#99F5FF"/>
<path opacity="0.59" d="M1031.7 115.065C1034.49 115.065 1036.75 112.803 1036.75 110.012C1036.75 107.221 1034.49 104.959 1031.7 104.959C1028.91 104.959 1026.65 107.221 1026.65 110.012C1026.65 112.803 1028.91 115.065 1031.7 115.065Z" fill="#99F5FF"/>
<path opacity="0.59" d="M1036.19 119.557C1038.98 119.557 1041.24 117.294 1041.24 114.504C1041.24 111.713 1038.98 109.45 1036.19 109.45C1033.4 109.45 1031.14 111.713 1031.14 114.504C1031.14 117.294 1033.4 119.557 1036.19 119.557Z" fill="#99F5FF"/>
<path opacity="0.59" d="M1061.19 114.56C1063.98 114.56 1066.24 112.297 1066.24 109.507C1066.24 106.716 1063.98 104.453 1061.19 104.453C1058.4 104.453 1056.14 106.716 1056.14 109.507C1056.14 112.297 1058.4 114.56 1061.19 114.56Z" fill="#99F5FF"/>
<path opacity="0.59" d="M1065.68 110.068C1068.47 110.068 1070.73 107.806 1070.73 105.015C1070.73 102.224 1068.47 99.9617 1065.68 99.9617C1062.89 99.9617 1060.63 102.224 1060.63 105.015C1060.63 107.806 1062.89 110.068 1065.68 110.068Z" fill="#99F5FF"/>
<path opacity="0.59" d="M1072.41 110.068C1075.2 110.068 1077.46 107.806 1077.46 105.015C1077.46 102.224 1075.2 99.9617 1072.41 99.9617C1069.62 99.9617 1067.36 102.224 1067.36 105.015C1067.36 107.806 1069.62 110.068 1072.41 110.068Z" fill="#99F5FF"/>
<path opacity="0.59" d="M1062 127.417C1064.79 127.417 1067.05 125.155 1067.05 122.364C1067.05 119.573 1064.79 117.311 1062 117.311C1059.21 117.311 1056.95 119.573 1056.95 122.364C1056.95 125.155 1059.21 127.417 1062 127.417Z" fill="#99F5FF"/>
</g>
<g clip-path="url(#clip2_7_1653)">
<path d="M988.416 362.251H976.76V382.06H988.416V362.251Z" fill="#99F5FF"/>
<path d="M1004.24 305.107H992.581V381.995H1004.24V305.107Z" fill="#99F5FF"/>
<path d="M1020.06 345.741H1008.4V381.982H1020.06V345.741Z" fill="#99F5FF"/>
<path d="M1035.88 373.685H1024.22V382.161H1035.88V373.685Z" fill="#99F5FF"/>
<path d="M1051.7 362.251H1040.04V382.121H1051.7V362.251Z" fill="#99F5FF"/>
<path d="M1067.52 337.245H1055.87V381.978H1067.52V337.245Z" fill="#99F5FF"/>
</g>
<defs>
<clipPath id="clip0_7_1653">
<rect width="11.038" height="11.9336" fill="white" transform="translate(515.455 115.587)"/>
</clipPath>
<clipPath id="clip1_7_1653">
<rect width="138.496" height="78.0992" fill="white" transform="translate(951.769 51.0248)"/>
</clipPath>
<clipPath id="clip2_7_1653">
<rect width="90.595" height="77.0579" fill="white" transform="translate(976.76 305.107)"/>
</clipPath>
</defs>
</svg>
