<svg width="1512" height="549" viewBox="0 0 1512 549" fill="none" xmlns="http://www.w3.org/2000/svg">
<g opacity="0.6">
<path d="M937.653 383V773" stroke="#99F5FF" stroke-opacity="0.2" stroke-width="0.99" stroke-miterlimit="10"/>
<path d="M897.238 383V773" stroke="#99F5FF" stroke-opacity="0.2" stroke-width="0.99" stroke-miterlimit="10"/>
<path d="M856.823 383V773" stroke="#99F5FF" stroke-opacity="0.2" stroke-width="0.99" stroke-miterlimit="10"/>
<path d="M816.407 383V773" stroke="#99F5FF" stroke-opacity="0.2" stroke-width="0.99" stroke-miterlimit="10"/>
<path d="M775.992 383V773" stroke="#99F5FF" stroke-opacity="0.2" stroke-width="0.99" stroke-miterlimit="10"/>
<path d="M735.593 383V773" stroke="#99F5FF" stroke-opacity="0.2" stroke-width="0.99" stroke-miterlimit="10"/>
<path d="M695.177 383V773" stroke="#99F5FF" stroke-opacity="0.2" stroke-width="0.99" stroke-miterlimit="10"/>
<path d="M654.762 383V773" stroke="#99F5FF" stroke-opacity="0.2" stroke-width="0.99" stroke-miterlimit="10"/>
<path d="M614.347 383V773" stroke="#99F5FF" stroke-opacity="0.2" stroke-width="0.99" stroke-miterlimit="10"/>
<path d="M971 537.593H581" stroke="#99F5FF" stroke-opacity="0.2" stroke-width="0.99" stroke-miterlimit="10"/>
<path d="M971 497.177H581" stroke="#99F5FF" stroke-opacity="0.2" stroke-width="0.99" stroke-miterlimit="10"/>
<path d="M971 456.762H581" stroke="#99F5FF" stroke-opacity="0.2" stroke-width="0.99" stroke-miterlimit="10"/>
<path d="M971 416.347H581" stroke="#99F5FF" stroke-opacity="0.2" stroke-width="0.99" stroke-miterlimit="10"/>
<path d="M786.12 486.869H765.869V507.12H786.12V496.995V486.869Z" fill="#99F5FF"/>
<path d="M776 479.456V514.544" stroke="#99F5FF" stroke-opacity="0.2" stroke-width="2.83" stroke-linecap="round" stroke-linejoin="round"/>
<path d="M793.544 497H758.456" stroke="#99F5FF" stroke-opacity="0.2" stroke-width="2.83" stroke-linecap="round" stroke-linejoin="round"/>
<path d="M1346.95 235.501C1346.95 237.526 1345.3 239.19 1343.25 239.19C1341.21 239.19 1339.56 237.546 1339.56 235.501C1339.56 233.456 1341.21 231.812 1343.25 231.812C1345.3 231.812 1346.95 233.456 1346.95 235.501Z" fill="#FFC93F" fill-opacity="0.2"/>
<path d="M1378.79 235.501C1378.79 237.526 1377.14 239.19 1375.1 239.19C1373.05 239.19 1371.4 237.546 1371.4 235.501C1371.4 233.456 1373.05 231.812 1375.1 231.812C1377.14 231.812 1378.79 233.456 1378.79 235.501Z" fill="#FFC93F" fill-opacity="0.2"/>
<path d="M1410.63 235.501C1410.63 237.526 1408.99 239.19 1406.94 239.19C1404.89 239.19 1403.24 237.546 1403.24 235.501C1403.24 233.456 1404.89 231.812 1406.94 231.812C1408.99 231.812 1410.63 233.456 1410.63 235.501Z" fill="#FFC93F" fill-opacity="0.2"/>
<path d="M1442.47 235.501C1442.47 237.526 1440.83 239.19 1438.78 239.19C1436.73 239.19 1435.09 237.546 1435.09 235.501C1435.09 233.456 1436.73 231.812 1438.78 231.812C1440.83 231.812 1442.47 233.456 1442.47 235.501Z" fill="#FFC93F" fill-opacity="0.2"/>
<path d="M1474.32 235.501C1474.32 237.526 1472.67 239.19 1470.62 239.19C1468.57 239.19 1466.93 237.546 1466.93 235.501C1466.93 233.456 1468.57 231.812 1470.62 231.812C1472.67 231.812 1474.32 233.456 1474.32 235.501Z" fill="#FFC93F" fill-opacity="0.2"/>
<path d="M1506.16 235.501C1506.16 237.526 1504.51 239.19 1502.46 239.19C1500.42 239.19 1498.77 237.546 1498.77 235.501C1498.77 233.456 1500.42 231.812 1502.46 231.812C1504.51 231.812 1506.16 233.456 1506.16 235.501Z" fill="#FFC93F" fill-opacity="0.2"/>
<path d="M1346.95 267.581C1346.95 269.607 1345.3 271.271 1343.25 271.271C1341.21 271.271 1339.56 269.627 1339.56 267.581C1339.56 265.536 1341.21 263.892 1343.25 263.892C1345.3 263.892 1346.95 265.536 1346.95 267.581Z" fill="#FFC93F" fill-opacity="0.2"/>
<path d="M1378.79 267.581C1378.79 269.607 1377.14 271.271 1375.1 271.271C1373.05 271.271 1371.4 269.627 1371.4 267.581C1371.4 265.536 1373.05 263.892 1375.1 263.892C1377.14 263.892 1378.79 265.536 1378.79 267.581Z" fill="#FFC93F" fill-opacity="0.2"/>
<path d="M1410.63 267.581C1410.63 269.607 1408.99 271.271 1406.94 271.271C1404.89 271.271 1403.24 269.627 1403.24 267.581C1403.24 265.536 1404.89 263.892 1406.94 263.892C1408.99 263.892 1410.63 265.536 1410.63 267.581Z" fill="#FFC93F" fill-opacity="0.2"/>
<path d="M1442.47 267.581C1442.47 269.607 1440.83 271.271 1438.78 271.271C1436.73 271.271 1435.09 269.627 1435.09 267.581C1435.09 265.536 1436.73 263.892 1438.78 263.892C1440.83 263.892 1442.47 265.536 1442.47 267.581Z" fill="#FFC93F" fill-opacity="0.2"/>
<path d="M1474.32 267.581C1474.32 269.607 1472.67 271.271 1470.62 271.271C1468.57 271.271 1466.93 269.627 1466.93 267.581C1466.93 265.536 1468.57 263.892 1470.62 263.892C1472.67 263.892 1474.32 265.536 1474.32 267.581Z" fill="#FFC93F" fill-opacity="0.2"/>
<path d="M1506.16 267.581C1506.16 269.607 1504.51 271.271 1502.46 271.271C1500.42 271.271 1498.77 269.627 1498.77 267.581C1498.77 265.536 1500.42 263.892 1502.46 263.892C1504.51 263.892 1506.16 265.536 1506.16 267.581Z" fill="#FFC93F" fill-opacity="0.2"/>
<path d="M1346.95 200.935C1346.95 202.96 1345.3 204.624 1343.25 204.624C1341.21 204.624 1339.56 202.98 1339.56 200.935C1339.56 198.89 1341.21 197.246 1343.25 197.246C1345.3 197.246 1346.95 198.89 1346.95 200.935Z" fill="#FFC93F" fill-opacity="0.2"/>
<path d="M1378.79 200.935C1378.79 202.96 1377.14 204.624 1375.1 204.624C1373.05 204.624 1371.4 202.98 1371.4 200.935C1371.4 198.89 1373.05 197.246 1375.1 197.246C1377.14 197.246 1378.79 198.89 1378.79 200.935Z" fill="#FFC93F" fill-opacity="0.2"/>
<path d="M1410.63 200.935C1410.63 202.96 1408.99 204.624 1406.94 204.624C1404.89 204.624 1403.24 202.98 1403.24 200.935C1403.24 198.89 1404.89 197.246 1406.94 197.246C1408.99 197.246 1410.63 198.89 1410.63 200.935Z" fill="#FFC93F" fill-opacity="0.2"/>
<path d="M1442.47 200.935C1442.47 202.96 1440.83 204.624 1438.78 204.624C1436.73 204.624 1435.09 202.98 1435.09 200.935C1435.09 198.89 1436.73 197.246 1438.78 197.246C1440.83 197.246 1442.47 198.89 1442.47 200.935Z" fill="#FFC93F" fill-opacity="0.2"/>
<path d="M1474.32 200.935C1474.32 202.96 1472.67 204.624 1470.62 204.624C1468.57 204.624 1466.93 202.98 1466.93 200.935C1466.93 198.89 1468.57 197.246 1470.62 197.246C1472.67 197.246 1474.32 198.89 1474.32 200.935Z" fill="#FFC93F" fill-opacity="0.2"/>
<path d="M1506.16 200.935C1506.16 202.96 1504.51 204.624 1502.46 204.624C1500.42 204.624 1498.77 202.98 1498.77 200.935C1498.77 198.89 1500.42 197.246 1502.46 197.246C1504.51 197.246 1506.16 198.89 1506.16 200.935Z" fill="#FFC93F" fill-opacity="0.2"/>
<path d="M1346.95 166.368C1346.95 168.393 1345.3 170.058 1343.25 170.058C1341.21 170.058 1339.56 168.414 1339.56 166.368C1339.56 164.323 1341.21 162.679 1343.25 162.679C1345.3 162.679 1346.95 164.323 1346.95 166.368Z" fill="#FFC93F" fill-opacity="0.2"/>
<path d="M1378.79 166.368C1378.79 168.393 1377.14 170.058 1375.1 170.058C1373.05 170.058 1371.4 168.414 1371.4 166.368C1371.4 164.323 1373.05 162.679 1375.1 162.679C1377.14 162.679 1378.79 164.323 1378.79 166.368Z" fill="#FFC93F" fill-opacity="0.2"/>
<path d="M1410.63 166.368C1410.63 168.393 1408.99 170.058 1406.94 170.058C1404.89 170.058 1403.24 168.414 1403.24 166.368C1403.24 164.323 1404.89 162.679 1406.94 162.679C1408.99 162.679 1410.63 164.323 1410.63 166.368Z" fill="#FFC93F" fill-opacity="0.2"/>
<path d="M1442.47 166.368C1442.47 168.393 1440.83 170.058 1438.78 170.058C1436.73 170.058 1435.09 168.414 1435.09 166.368C1435.09 164.323 1436.73 162.679 1438.78 162.679C1440.83 162.679 1442.47 164.323 1442.47 166.368Z" fill="#FFC93F" fill-opacity="0.2"/>
<path d="M1474.32 166.368C1474.32 168.393 1472.67 170.058 1470.62 170.058C1468.57 170.058 1466.93 168.414 1466.93 166.368C1466.93 164.323 1468.57 162.679 1470.62 162.679C1472.67 162.679 1474.32 164.323 1474.32 166.368Z" fill="#FFC93F" fill-opacity="0.2"/>
<path d="M1506.16 166.368C1506.16 168.393 1504.51 170.058 1502.46 170.058C1500.42 170.058 1498.77 168.414 1498.77 166.368C1498.77 164.323 1500.42 162.679 1502.46 162.679C1504.51 162.679 1506.16 164.323 1506.16 166.368Z" fill="#FFC93F" fill-opacity="0.2"/>
<path d="M1346.95 131.802C1346.95 133.827 1345.3 135.491 1343.25 135.491C1341.21 135.491 1339.56 133.847 1339.56 131.802C1339.56 129.757 1341.21 128.113 1343.25 128.113C1345.3 128.113 1346.95 129.757 1346.95 131.802Z" fill="#FFC93F" fill-opacity="0.2"/>
<path d="M1378.79 131.802C1378.79 133.827 1377.14 135.491 1375.1 135.491C1373.05 135.491 1371.4 133.847 1371.4 131.802C1371.4 129.757 1373.05 128.113 1375.1 128.113C1377.14 128.113 1378.79 129.757 1378.79 131.802Z" fill="#FFC93F" fill-opacity="0.2"/>
<path d="M1410.63 131.802C1410.63 133.827 1408.99 135.491 1406.94 135.491C1404.89 135.491 1403.24 133.847 1403.24 131.802C1403.24 129.757 1404.89 128.113 1406.94 128.113C1408.99 128.113 1410.63 129.757 1410.63 131.802Z" fill="#FFC93F" fill-opacity="0.2"/>
<path d="M1442.47 131.802C1442.47 133.827 1440.83 135.491 1438.78 135.491C1436.73 135.491 1435.09 133.847 1435.09 131.802C1435.09 129.757 1436.73 128.113 1438.78 128.113C1440.83 128.113 1442.47 129.757 1442.47 131.802Z" fill="#FFC93F" fill-opacity="0.2"/>
<path d="M1474.32 131.802C1474.32 133.827 1472.67 135.491 1470.62 135.491C1468.57 135.491 1466.93 133.847 1466.93 131.802C1466.93 129.757 1468.57 128.113 1470.62 128.113C1472.67 128.113 1474.32 129.757 1474.32 131.802Z" fill="#FFC93F" fill-opacity="0.2"/>
<path d="M1506.16 131.802C1506.16 133.827 1504.51 135.491 1502.46 135.491C1500.42 135.491 1498.77 133.847 1498.77 131.802C1498.77 129.757 1500.42 128.113 1502.46 128.113C1504.51 128.113 1506.16 129.757 1506.16 131.802Z" fill="#FFC93F" fill-opacity="0.2"/>
<path d="M1346.95 97.2556C1346.95 99.2807 1345.3 100.945 1343.25 100.945C1341.21 100.945 1339.56 99.3007 1339.56 97.2556C1339.56 95.2105 1341.21 93.5664 1343.25 93.5664C1345.3 93.5664 1346.95 95.2105 1346.95 97.2556Z" fill="#FFC93F" fill-opacity="0.2"/>
<path d="M1378.79 97.2556C1378.79 99.2807 1377.14 100.945 1375.1 100.945C1373.05 100.945 1371.4 99.3007 1371.4 97.2556C1371.4 95.2105 1373.05 93.5664 1375.1 93.5664C1377.14 93.5664 1378.79 95.2105 1378.79 97.2556Z" fill="#FFC93F" fill-opacity="0.2"/>
<path d="M1410.63 97.2556C1410.63 99.2807 1408.99 100.945 1406.94 100.945C1404.89 100.945 1403.24 99.3007 1403.24 97.2556C1403.24 95.2105 1404.89 93.5664 1406.94 93.5664C1408.99 93.5664 1410.63 95.2105 1410.63 97.2556Z" fill="#FFC93F" fill-opacity="0.2"/>
<path d="M1442.47 97.2556C1442.47 99.2807 1440.83 100.945 1438.78 100.945C1436.73 100.945 1435.09 99.3007 1435.09 97.2556C1435.09 95.2105 1436.73 93.5664 1438.78 93.5664C1440.83 93.5664 1442.47 95.2105 1442.47 97.2556Z" fill="#FFC93F" fill-opacity="0.2"/>
<path d="M1474.32 97.2556C1474.32 99.2807 1472.67 100.945 1470.62 100.945C1468.57 100.945 1466.93 99.3007 1466.93 97.2556C1466.93 95.2105 1468.57 93.5664 1470.62 93.5664C1472.67 93.5664 1474.32 95.2105 1474.32 97.2556Z" fill="#FFC93F" fill-opacity="0.2"/>
<path d="M1506.16 97.2556C1506.16 99.2807 1504.51 100.945 1502.46 100.945C1500.42 100.945 1498.77 99.3007 1498.77 97.2556C1498.77 95.2105 1500.42 93.5664 1502.46 93.5664C1504.51 93.5664 1506.16 95.2105 1506.16 97.2556Z" fill="#FFC93F" fill-opacity="0.2"/>
<path d="M1346.95 62.6892C1346.95 64.7143 1345.3 66.3784 1343.25 66.3784C1341.21 66.3784 1339.56 64.7343 1339.56 62.6892C1339.56 60.6441 1341.21 59 1343.25 59C1345.3 59 1346.95 60.6441 1346.95 62.6892Z" fill="#FFC93F" fill-opacity="0.2"/>
<path d="M1378.79 62.6892C1378.79 64.7143 1377.14 66.3784 1375.1 66.3784C1373.05 66.3784 1371.4 64.7343 1371.4 62.6892C1371.4 60.6441 1373.05 59 1375.1 59C1377.14 59 1378.79 60.6441 1378.79 62.6892Z" fill="#FFC93F" fill-opacity="0.2"/>
<path d="M1410.63 62.6892C1410.63 64.7143 1408.99 66.3784 1406.94 66.3784C1404.89 66.3784 1403.24 64.7343 1403.24 62.6892C1403.24 60.6441 1404.89 59 1406.94 59C1408.99 59 1410.63 60.6441 1410.63 62.6892Z" fill="#FFC93F" fill-opacity="0.2"/>
<path d="M1442.47 62.6892C1442.47 64.7143 1440.83 66.3784 1438.78 66.3784C1436.73 66.3784 1435.09 64.7343 1435.09 62.6892C1435.09 60.6441 1436.73 59 1438.78 59C1440.83 59 1442.47 60.6441 1442.47 62.6892Z" fill="#FFC93F" fill-opacity="0.2"/>
<path d="M1474.32 62.6892C1474.32 64.7143 1472.67 66.3784 1470.62 66.3784C1468.57 66.3784 1466.93 64.7343 1466.93 62.6892C1466.93 60.6441 1468.57 59 1470.62 59C1472.67 59 1474.32 60.6441 1474.32 62.6892Z" fill="#FFC93F" fill-opacity="0.2"/>
<path d="M1506.16 62.6892C1506.16 64.7143 1504.51 66.3784 1502.46 66.3784C1500.42 66.3784 1498.77 64.7343 1498.77 62.6892C1498.77 60.6441 1500.42 59 1502.46 59C1504.51 59 1506.16 60.6441 1506.16 62.6892Z" fill="#FFC93F" fill-opacity="0.2"/>
<path d="M1452.12 86.8694H1431.87V107.12H1452.12V96.9949V86.8694Z" fill="#FFC93F"/>
<path d="M1442 79.456V114.544" stroke="#282828" stroke-width="2.83" stroke-linecap="round" stroke-linejoin="round"/>
<path d="M1459.54 97H1424.46" stroke="#282828" stroke-width="2.83" stroke-linecap="round" stroke-linejoin="round"/>
<path d="M92.0573 75.4192H-6.72375V175.748H92.0573V75.4192Z" stroke="#7A76FF" stroke-opacity="0.7" stroke-width="0.99" stroke-miterlimit="10"/>
<path d="M204.749 1.27742H44.3769V101.606H204.749V1.27742Z" stroke="#7A76FF" stroke-opacity="0.7" stroke-width="0.99" stroke-miterlimit="10"/>
<path d="M191.553 47.2392L158.549 14.2305H191.553V47.2392Z" fill="#7A76FF" fill-opacity="0.7"/>
<path d="M186.142 19.6212L146.961 58.1739" stroke="#7A76FF" stroke-opacity="0.7" stroke-width="0.99" stroke-miterlimit="10"/>
</g>
</svg>
