<svg width="400" height="100" xmlns="http://www.w3.org/2000/svg" xml:space="preserve" version="1.1">

 <g>
  <title>Layer 1</title>
  <g id="svg_14">
   <g id="svg_11">
    <path id="svg_2" fill="#000000" d="m22.46426,5.0065c2.04516,0.29217 16.65344,2.04516 43.53267,5.25898l0,13.43962c0,0.29217 0,0.8765 0,1.75299c-11.10229,7.30414 -16.9456,11.39446 -18.11427,11.97879l-8.18064,-0.8765l0,0l0,0c0.58433,0 7.59631,0.8765 21.03592,2.62949c0,0 0,0 0,0.29217c0,2.04516 0,7.01197 0,15.19261c-7.88847,5.25898 -13.73178,9.05713 -18.11427,11.97879c-1.75299,-0.29217 -2.92166,-0.29217 -2.92166,-0.29217l0,6.13548c0,2.62949 0,6.13548 0,10.51796c-11.97879,7.88847 -18.11427,11.97879 -18.11427,11.97879l0,0c-0.8765,0 -6.71981,-0.58433 -17.23777,-2.04516l0,0c0,-16.36127 0,-41.48751 0,-75.67089c11.39446,-7.88847 17.52994,-11.97879 18.11427,-12.27095zm-16.36127,14.02395c0,14.02395 0,37.98153 -0.29217,72.1649l14.02395,1.75299c0,-1.46083 0,-2.92166 0,-3.79815l0,-18.6986c0,-1.75299 0,-4.67465 0,-8.18064l0,0c12.85529,1.46083 19.57509,2.33732 20.74376,2.33732c0,-3.50599 0,-6.13548 0,-7.88847l0,-4.09032c0,0 -0.8765,-0.29217 -2.33732,-0.29217l-18.40643,-2.33732l0,-17.52994l0,0c0.29217,0 9.05713,1.16866 26.2949,3.21382l0,-11.97879c-1.46083,-0.29217 -14.90044,-1.75299 -40.02668,-4.67465z" class="st0"/>
    <path id="svg_3" fill="#000000" d="m82.06604,3.2535c11.10229,1.16866 16.9456,2.04516 17.52994,2.04516l0,0c0,15.77694 0,35.93637 0,60.18611c19.86726,2.33732 30.38522,3.50599 31.26172,3.79815l0,15.48478c-10.51796,7.01197 -16.36127,11.10229 -18.11427,11.97879c-30.67739,-3.50599 -46.74649,-5.55115 -48.79165,-5.84331l0,0c0,-16.06911 0,-41.48751 0,-75.67089c11.39446,-7.59631 17.52994,-11.68662 18.11427,-11.97879zm-16.65344,13.73178c0,12.27095 0,36.5207 0,72.1649c28.92439,3.50599 44.117,5.25898 45.57783,5.25898l0,-11.97879c-20.45159,-2.33732 -30.96955,-3.50599 -31.26172,-3.79815c0,-25.41841 0,-45.57783 0,-60.18611l0,0l-14.31611,-1.46083z" class="st0"/>
    <path id="svg_4" fill="#000000" d="m167.08622,4.13l1.16866,0c4.09032,0 8.4728,0.8765 12.85529,2.62949c5.84331,2.62949 10.2258,7.01197 12.85529,12.56312c2.04516,4.96681 2.92166,10.51796 2.92166,16.65344l0,20.45159c0,9.93363 -1.75299,16.65344 -5.55115,20.74376c-1.75299,1.75299 -2.92166,2.62949 -3.50599,2.92166c-11.68662,7.88847 -18.40643,12.27095 -19.57509,12.85529c-3.21382,1.46083 -6.71981,2.33732 -9.93363,2.33732l-1.75299,0c-5.25898,0 -10.2258,-1.46083 -15.19261,-4.09032c-4.96681,-2.92166 -8.4728,-7.01197 -10.51796,-12.85529c-1.75299,-4.96681 -2.33732,-10.51796 -2.33732,-16.36127l0,-19.57509c0,-7.88847 1.16866,-13.43962 3.50599,-17.23777c1.75299,-3.21382 4.38248,-5.84331 7.88847,-7.88847c10.51796,-7.01197 16.36127,-10.81013 17.52994,-11.39446c2.92166,-1.16866 6.13548,-1.75299 9.64146,-1.75299zm-37.10503,37.68936c0,4.96681 0,11.68662 0,20.74376c0,5.84331 0.8765,11.39446 2.33732,16.36127c2.04516,5.55115 5.84331,9.64146 11.10229,12.27095c4.38248,2.04516 8.76497,3.21382 13.43962,3.21382l0.58433,0c7.59631,0 12.85529,-2.92166 16.36127,-8.4728c0.58433,-0.8765 1.46083,-2.62949 2.04516,-4.67465c0.8765,-3.79815 1.46083,-7.30414 1.46083,-11.39446c0,-8.18064 0,-14.60828 0,-19.57509c0,-10.51796 -2.04516,-18.11427 -5.84331,-22.78892c-1.75299,-2.33732 -3.50599,-3.79815 -4.96681,-4.67465c-1.16866,-0.8765 -2.92166,-1.75299 -4.96681,-2.62949c-4.09032,-1.46083 -8.18064,-2.33732 -11.97879,-2.33732l-0.8765,0c-6.42764,0 -11.10229,2.33732 -14.60828,6.71981c-2.62949,4.09032 -4.09032,9.64146 -4.09032,17.23777zm21.91242,-11.97879l0.8765,0c2.92166,0 5.55115,0.8765 7.59631,2.92166c1.75299,1.75299 2.62949,4.96681 2.62949,9.05713c0,11.39446 0,20.15943 0,26.58707c0,4.96681 -0.58433,8.18064 -1.46083,9.93363c-1.16866,2.62949 -3.50599,3.79815 -6.13548,3.79815l0,0c-3.79815,0 -6.71981,-1.46083 -8.4728,-4.09032c-1.46083,-2.33732 -2.33732,-5.84331 -2.33732,-10.51796c0,-2.92166 0,-4.96681 0,-6.71981l0,-17.8221c0,-4.38248 0.29217,-7.30414 1.16866,-8.4728c0.58433,-1.75299 1.75299,-2.92166 3.50599,-3.79815c0.58433,-0.58433 1.75299,-0.8765 2.62949,-0.8765zm-5.84331,35.93637l0,1.16866l15.19261,-9.93363l0,-1.46083c-8.4728,5.84331 -13.73178,9.05713 -15.19261,10.2258zm33.01471,2.33732l0,0c9.64146,-6.13548 14.90044,-9.93363 16.36127,-10.81013l0,-1.16866l0,0l0,0l-16.36127,10.81013l0,1.16866z" class="st0"/>
   </g>
   <g id="svg_12">
    <path id="svg_5" fill="#000000" d="m236.08246,5.15258c11.10229,1.16866 16.9456,2.04516 16.9456,2.04516l0,0c0,13.43962 0,33.01471 0,59.30961c0,2.62949 -0.58433,5.25898 -1.75299,8.18064c-0.58433,1.46083 -1.75299,2.92166 -2.92166,4.38248c-1.16866,0.8765 -2.92166,2.33732 -5.25898,3.79815c-9.64146,6.42764 -15.19261,9.93363 -15.77694,10.51796c-2.62949,1.16866 -5.25898,1.75299 -7.88847,1.75299l-1.16866,0c-2.33732,0 -4.96681,-0.29217 -8.76497,-1.16866c-1.75299,-0.58433 -3.21382,-1.16866 -4.38248,-1.75299c-6.71981,-4.09032 -9.93363,-10.51796 -9.93363,-19.86726l0,-3.79815c0,-2.04516 0,-3.21382 0.29217,-3.21382l17.8221,-11.68662c0.58433,0 2.04516,0.29217 4.67465,0.58433l0,-37.10503c11.68662,-7.59631 17.52994,-11.68662 18.11427,-11.97879zm-16.36127,14.02395c0,1.46083 0,4.38248 0,9.64146c0,18.40643 0,33.59904 0,45.57783c0,3.21382 -0.58433,5.25898 -1.46083,6.13548c-0.8765,0.8765 -2.04516,1.16866 -3.50599,1.16866c-1.75299,0 -3.50599,-0.58433 -4.67465,-1.75299c-0.8765,-1.16866 -1.46083,-2.62949 -1.75299,-4.38248c0,-1.46083 -0.29217,-3.21382 -0.29217,-5.25898l0,-1.75299c-6.71981,-0.8765 -10.51796,-1.16866 -11.10229,-1.16866c0,0.58433 0,1.16866 0,1.46083l0,2.62949c0,5.84331 0.8765,10.2258 2.92166,13.14745c2.04516,3.21382 4.96681,5.84331 9.05713,7.30414c0.8765,0.29217 2.92166,0.8765 6.42764,1.16866c1.16866,0 2.33732,0.29217 2.92166,0.29217l1.16866,0c3.79815,0 7.01197,-1.16866 9.64146,-3.21382c2.92166,-2.62949 4.38248,-7.01197 4.38248,-12.85529c0,-1.75299 0,-3.21382 0,-4.67465c0,-19.28293 0,-35.05987 0,-47.33082c0,-2.04516 0,-3.50599 0,-4.09032c0,-0.58433 -4.67465,-1.16866 -13.73178,-2.04516zm-10.51796,48.20732l0,0.29217l0,0c4.96681,-3.21382 7.88847,-5.25898 8.4728,-5.55115l0,-0.29217l0,0c-4.96681,3.21382 -7.59631,4.96681 -8.4728,5.55115zm25.71057,8.76497l0,1.16866l16.36127,-10.81013l0,-1.16866c-9.3493,6.42764 -14.90044,9.93363 -16.36127,10.81013z" class="st0"/>
    <path id="svg_6" fill="#000000" d="m289.54876,4.27609l1.16866,0c4.09032,0 8.4728,0.8765 12.85529,2.62949c5.84331,2.62949 10.2258,7.01197 12.85529,12.56312c2.04516,4.96681 2.92166,10.51796 2.92166,16.65344l0,20.45159c0,9.93363 -1.75299,16.65344 -5.55115,20.74376c-1.75299,1.75299 -2.92166,2.62949 -3.50599,2.92166c-11.68662,7.88847 -18.40643,12.27095 -19.57509,12.85529c-3.21382,1.46083 -6.71981,2.33732 -9.93363,2.33732l-1.75299,0c-5.25898,0 -10.2258,-1.46083 -15.19261,-4.09032c-4.96681,-2.92166 -8.4728,-7.01197 -10.51796,-12.85529c-1.75299,-4.96681 -2.33732,-10.51796 -2.33732,-16.36127l0,-19.57509c0,-7.88847 1.16866,-13.43962 3.50599,-17.23777c1.75299,-3.21382 4.38248,-5.84331 7.88847,-7.88847c10.51796,-7.01197 16.36127,-10.81013 17.52994,-11.39446c2.92166,-1.16866 6.13548,-1.75299 9.64146,-1.75299zm-36.81286,37.68936c0,4.96681 0,11.68662 0,20.74376c0,5.84331 0.8765,11.39446 2.33732,16.36127c2.04516,5.55115 5.55115,9.64146 11.10229,12.27095c4.38248,2.04516 8.76497,3.21382 13.43962,3.21382l0.58433,0c7.59631,0 12.85529,-2.92166 16.36127,-8.4728c0.58433,-0.8765 1.46083,-2.62949 2.04516,-4.67465c0.8765,-3.79815 1.46083,-7.30414 1.46083,-11.10229c0,-8.18064 0,-14.60828 0,-19.57509c0,-10.51796 -2.04516,-18.11427 -5.84331,-22.78892c-1.75299,-2.33732 -3.50599,-3.79815 -4.96681,-4.67465c-1.16866,-0.8765 -2.92166,-1.75299 -4.96681,-2.62949c-4.09032,-1.46083 -8.18064,-2.33732 -11.97879,-2.33732l-0.8765,0c-6.42764,0 -11.10229,2.33732 -14.60828,6.71981c-2.62949,3.79815 -4.09032,9.3493 -4.09032,16.9456zm21.91242,-11.97879l0.8765,0c2.92166,0 5.55115,0.8765 7.59631,2.92166c1.75299,1.75299 2.62949,4.96681 2.62949,9.05713c0,11.10229 0,20.15943 0,26.58707c0,4.96681 -0.58433,8.18064 -1.46083,9.93363c-1.16866,2.62949 -3.50599,3.79815 -6.13548,3.79815l0,0c-3.79815,0 -6.71981,-1.46083 -8.4728,-4.09032c-1.46083,-2.33732 -2.33732,-5.84331 -2.33732,-10.51796c0,-2.92166 0,-4.96681 0,-6.71981l0,-17.8221c0,-4.38248 0.29217,-7.30414 1.16866,-8.4728c0.58433,-1.75299 1.75299,-2.92166 3.50599,-3.79815c0.58433,-0.58433 1.46083,-0.8765 2.62949,-0.8765zm-6.13548,35.93637l0,1.16866l15.19261,-9.93363l0,-1.46083c-8.4728,5.84331 -13.43962,9.05713 -15.19261,10.2258zm33.01471,2.33732l0,0c9.64146,-6.13548 14.90044,-9.93363 16.36127,-10.81013l0,-1.16866l0,0l0,0l-16.36127,10.81013l0,1.16866z" class="st0"/>
    <path id="svg_7" fill="#000000" d="m335.41876,3.98392c3.21382,0.29217 9.3493,1.16866 18.40643,2.04516c0.29217,0.29217 2.62949,5.25898 7.01197,15.19261l0,0c0,-0.29217 0.58433,-0.58433 1.46083,-1.16866c10.51796,-7.01197 16.06911,-10.81013 16.9456,-11.10229c10.51796,1.16866 16.65344,2.04516 18.40643,2.04516c-14.31611,28.0479 -21.62025,42.07184 -21.91242,42.65618l0,2.33732c0,7.01197 0,16.36127 0,28.0479c-11.10229,7.30414 -17.23777,11.39446 -18.11427,11.97879l0,0c-2.92166,-0.29217 -8.76497,-0.8765 -17.23777,-2.04516l0,-23.95758l0,-5.84331c-0.29217,-0.29217 -6.42764,-13.73178 -18.6986,-39.44235c-2.92166,-5.84331 -4.38248,-9.05713 -4.38248,-9.05713c11.10229,-7.30414 17.23777,-11.10229 18.11427,-11.68662zm-15.48478,13.73178l0,0l21.91242,46.45433l0,28.63223l14.02395,1.75299c0,-0.58433 0,-0.8765 0,-1.16866l0,-21.62025c0,-1.46083 0,-3.50599 0,-6.42764c14.02395,-26.87923 21.03592,-40.61102 21.03592,-40.61102l-14.60828,-1.75299c-7.59631,15.48478 -11.97879,23.95758 -12.56312,25.71057c0,0.29217 -0.29217,0.29217 -0.29217,0.29217c-0.8765,0 -1.46083,0 -1.46083,-0.29217c-2.92166,-6.71981 -6.13548,-14.31611 -9.93363,-22.49675c-1.75299,-4.09032 -2.92166,-6.13548 -2.92166,-6.13548l-15.19261,-2.33732zm25.12624,20.15943l0,0c6.71981,-4.09032 10.51796,-6.42764 11.68662,-7.30414c0,0 0,-0.29217 0.29217,-0.29217l0,0c-6.71981,4.09032 -10.81013,6.71981 -11.97879,7.59631l0,0z" class="st0"/>
   </g>
  </g>
 </g>
</svg>