<svg xmlns="http://www.w3.org/2000/svg" version="1.1" xmlns:xlink="http://www.w3.org/1999/xlink" xmlns:svgjs="http://svgjs.com/svgjs" width="1000" height="1000"><rect width="1000" height="1000" rx="200" ry="200" fill="#000000"></rect><g transform="matrix(9,0,0,9,49.99995422363281,49.99998474121094)"><svg xmlns="http://www.w3.org/2000/svg" version="1.1" xmlns:xlink="http://www.w3.org/1999/xlink" xmlns:svgjs="http://svgjs.com/svgjs" width="100" height="100"><svg width="100" height="100" xmlns="http://www.w3.org/2000/svg" xml:space="preserve" version="1.1">

 <g>
  <title>Layer 1</title>
  <g stroke-width="0" id="svg_10">
   <path id="svg_2" fill="#FFFFFF" d="m17.00588,13.05588c1.62647,0.23235 13.24412,1.62647 34.62059,4.18235l0,10.68824c0,0.23235 0,0.69706 0,1.39412c-8.82941,5.80882 -13.47647,9.06176 -14.40588,9.52647l-6.50588,-0.69706l0,0l0,0c0.46471,0 6.04118,0.69706 16.72941,2.09118c0,0 0,0 0,0.23235c0,1.62647 0,5.57647 0,12.08235c-6.27353,4.18235 -10.92059,7.20294 -14.40588,9.52647c-1.39412,-0.23235 -2.32353,-0.23235 -2.32353,-0.23235l0,4.87941c0,2.09118 0,4.87941 0,8.36471c-9.52647,6.27353 -14.40588,9.52647 -14.40588,9.52647l0,0c-0.69706,0 -5.34412,-0.46471 -13.70882,-1.62647l0,0c0,-13.01176 0,-32.99412 0,-60.17941c9.06176,-6.27353 13.94118,-9.52647 14.40588,-9.75882zm-13.01176,11.15294c0,11.15294 0,30.20588 -0.23235,57.39118l11.15294,1.39412c0,-1.16176 0,-2.32353 0,-3.02059l0,-14.87059c0,-1.39412 0,-3.71765 0,-6.50588l0,0c10.22353,1.16176 15.56765,1.85882 16.49706,1.85882c0,-2.78824 0,-4.87941 0,-6.27353l0,-3.25294c0,0 -0.69706,-0.23235 -1.85882,-0.23235l-14.63824,-1.85882l0,-13.94118l0,0c0.23235,0 7.20294,0.92941 20.91176,2.55588l0,-9.52647c-1.16176,-0.23235 -11.85,-1.39412 -31.83235,-3.71765z" class="st0"></path>
   <path id="svg_5" fill="#FFFFFF" d="m83.92353,15.37941c8.82941,0.92941 13.47647,1.62647 13.47647,1.62647l0,0c0,10.68824 0,26.25588 0,47.16765c0,2.09118 -0.46471,4.18235 -1.39412,6.50588c-0.46471,1.16176 -1.39412,2.32353 -2.32353,3.48529c-0.92941,0.69706 -2.32353,1.85882 -4.18235,3.02059c-7.66765,5.11176 -12.08235,7.9 -12.54706,8.36471c-2.09118,0.92941 -4.18235,1.39412 -6.27353,1.39412l-0.92941,0c-1.85882,0 -3.95,-0.23235 -6.97059,-0.92941c-1.39412,-0.46471 -2.55588,-0.92941 -3.48529,-1.39412c-5.34412,-3.25294 -7.9,-8.36471 -7.9,-15.8l0,-3.02059c0,-1.62647 0,-2.55588 0.23235,-2.55588l14.17353,-9.29412c0.46471,0 1.62647,0.23235 3.71765,0.46471l0,-29.50882c9.29412,-6.04118 13.94118,-9.29412 14.40588,-9.52647zm-13.01176,11.15294c0,1.16176 0,3.48529 0,7.66765c0,14.63824 0,26.72059 0,36.24706c0,2.55588 -0.46471,4.18235 -1.16176,4.87941c-0.69706,0.69706 -1.62647,0.92941 -2.78824,0.92941c-1.39412,0 -2.78824,-0.46471 -3.71765,-1.39412c-0.69706,-0.92941 -1.16176,-2.09118 -1.39412,-3.48529c0,-1.16176 -0.23235,-2.55588 -0.23235,-4.18235l0,-1.39412c-5.34412,-0.69706 -8.36471,-0.92941 -8.82941,-0.92941c0,0.46471 0,0.92941 0,1.16176l0,2.09118c0,4.64706 0.69706,8.13235 2.32353,10.45588c1.62647,2.55588 3.95,4.64706 7.20294,5.80882c0.69706,0.23235 2.32353,0.69706 5.11176,0.92941c0.92941,0 1.85882,0.23235 2.32353,0.23235l0.92941,0c3.02059,0 5.57647,-0.92941 7.66765,-2.55588c2.32353,-2.09118 3.48529,-5.57647 3.48529,-10.22353c0,-1.39412 0,-2.55588 0,-3.71765c0,-15.33529 0,-27.88235 0,-37.64118c0,-1.62647 0,-2.78824 0,-3.25294c0,-0.46471 -3.71765,-0.92941 -10.92059,-1.62647zm-8.36471,38.33823l0,0.23235l0,0c3.95,-2.55588 6.27353,-4.18235 6.73824,-4.41471l0,-0.23235l0,0c-3.95,2.55588 -6.04118,3.95 -6.73824,4.41471zm20.44706,6.97059l0,0.92941l13.01176,-8.59706l0,-0.92941c-7.43529,5.11176 -11.85,7.9 -13.01176,8.59706z" class="st0"></path>
  </g>
 </g>
</svg></svg></g></svg>