<?xml version="1.0" standalone="no"?>
<!DOCTYPE svg PUBLIC "-//W3C//DTD SVG 20010904//EN"
 "http://www.w3.org/TR/2001/REC-SVG-20010904/DTD/svg10.dtd">
<svg version="1.0" xmlns="http://www.w3.org/2000/svg"
 width="700.000000pt" height="700.000000pt" viewBox="0 0 700.000000 700.000000"
 preserveAspectRatio="xMidYMid meet">
<metadata>
Created by potrace 1.14, written by Peter Selinger 2001-2017
</metadata>
<g transform="translate(0.000000,700.000000) scale(0.100000,-0.100000)"
fill="#000000" stroke="none">
<path d="M2780 5676 l-185 -125 -3 44 c-3 43 -4 45 -35 46 -18 0 -41 2 -52 4
-19 3 -154 20 -235 29 -101 12 -152 18 -220 26 -41 5 -100 12 -130 15 -30 4
-71 9 -90 11 -19 3 -53 7 -75 9 -22 3 -56 7 -75 10 -147 18 -123 24 -255 -66
-66 -44 -163 -110 -216 -145 l-96 -65 0 -905 c0 -497 3 -906 7 -909 3 -2 24
-6 46 -9 100 -12 141 -17 169 -21 17 -2 59 -7 95 -11 36 -4 71 -8 79 -9 13 -1
156 89 384 243 l67 46 0 198 0 199 38 -2 c33 -2 62 14 247 136 116 76 212 140
215 142 9 8 5 365 -5 372 -5 5 -37 11 -70 14 -69 7 -219 28 -222 31 -3 3 365
246 372 246 3 0 5 -344 5 -764 l0 -764 68 -7 c37 -4 76 -9 86 -11 11 -2 42 -6
70 -9 28 -3 67 -7 86 -10 19 -2 76 -9 125 -15 95 -11 135 -16 200 -25 22 -2
63 -7 90 -10 28 -3 66 -7 85 -10 19 -3 58 -7 85 -10 28 -3 64 -7 80 -9 17 -2
59 -7 95 -11 36 -3 72 -9 81 -11 10 -3 106 54 236 141 l219 145 -1 70 c-1 38
0 70 1 70 1 0 17 -30 35 -67 132 -270 547 -405 842 -275 43 19 516 331 547
361 71 68 115 163 141 301 15 77 20 785 7 864 -37 219 -77 308 -193 421 -100
99 -202 147 -380 179 -36 7 -202 8 -230 2 -81 -18 -125 -31 -155 -49 -100 -59
-498 -328 -515 -348 -87 -105 -133 -210 -149 -344 -7 -51 -7 -752 -1 -784 4
-23 3 -23 -53 -16 -31 4 -63 8 -72 10 -14 2 -77 10 -180 21 -25 3 -58 7 -75 9
-44 6 -192 23 -255 30 -30 3 -57 8 -60 11 -3 3 -5 327 -5 719 0 392 -2 716 -5
718 -3 3 -34 8 -70 11 -36 4 -85 9 -110 12 -25 2 -56 7 -70 9 -14 3 -59 7
-100 10 l-75 6 -185 -125z m-15 -221 c17 -1 58 -6 93 -10 l62 -7 0 -636 c-1
-351 -1 -676 0 -723 l0 -86 108 -12 c59 -7 118 -14 132 -16 14 -2 52 -7 85
-10 33 -3 71 -8 85 -10 14 -3 54 -7 90 -10 36 -4 106 -12 155 -18 l90 -13 2
-142 2 -143 -77 6 c-42 3 -84 8 -92 10 -8 2 -42 7 -75 10 -33 4 -116 13 -185
22 -69 8 -141 16 -160 18 -19 2 -57 6 -85 10 -51 6 -182 22 -245 30 -19 2 -60
7 -90 10 -30 3 -62 8 -70 10 -13 4 -15 97 -15 759 0 415 4 758 8 762 4 4 7 52
7 107 l0 99 73 -7 c39 -4 86 -8 102 -10z m2003 -26 c269 -65 417 -223 468
-498 22 -117 27 -745 8 -871 -28 -175 -48 -224 -127 -308 -91 -97 -195 -134
-360 -129 -351 11 -595 225 -609 534 -2 32 -7 61 -13 65 -6 5 -10 151 -10 405
1 374 2 403 22 480 49 186 118 266 278 324 72 26 230 25 343 -2z m-3528 -13
c36 -4 76 -9 90 -11 14 -2 52 -7 85 -10 33 -3 94 -10 135 -15 41 -5 95 -12
120 -14 84 -9 245 -27 270 -31 37 -6 143 -18 158 -18 14 0 14 3 14 -157 l1
-125 -44 1 c-41 1 -141 10 -199 19 -14 2 -50 6 -80 10 -30 4 -66 8 -80 10 -54
8 -195 25 -210 25 -14 0 -16 -25 -16 -207 l1 -208 120 -17 c66 -9 143 -19 170
-23 28 -3 68 -8 90 -11 57 -7 99 -13 108 -13 4 -1 7 -66 7 -145 l0 -143 -27 3
c-16 1 -55 6 -88 9 -33 4 -73 9 -90 11 -16 2 -52 6 -80 9 -50 6 -82 10 -161
20 -29 4 -43 2 -46 -7 -3 -7 -4 -172 -4 -366 1 -228 -3 -352 -9 -353 -5 -1
-14 -1 -18 0 -23 4 -89 12 -137 16 -30 3 -64 7 -75 10 -11 2 -37 4 -58 4 l-38
1 5 868 c2 477 4 868 5 870 1 2 4 1 9 -1 4 -3 36 -8 72 -11z m4449 -910 c-2
-1 -65 -43 -139 -92 -212 -143 -250 -165 -250 -150 0 17 383 271 388 256 2 -6
2 -12 1 -14z"/>
<path d="M4591 5148 c-23 -11 -52 -35 -65 -52 -50 -69 -51 -73 -51 -506 0
-223 4 -424 7 -448 9 -55 42 -130 71 -161 52 -56 189 -85 252 -53 33 16 47 32
71 75 15 29 19 40 31 107 9 55 10 799 0 854 -22 126 -96 192 -222 201 -38 3
-63 -2 -94 -17z m279 -621 c0 -16 -354 -250 -358 -237 -3 9 46 59 59 60 7 0
221 143 258 171 28 22 41 24 41 6z"/>
<path d="M4310 2814 c-91 -59 -178 -114 -194 -123 -16 -9 -39 -25 -53 -36
l-23 -20 41 -85 c67 -138 174 -360 207 -430 60 -130 191 -408 246 -523 l56
-119 1 -359 0 -359 22 -1 c12 0 31 -2 42 -4 41 -7 192 -25 255 -30 36 -4 71
-8 78 -10 7 -3 111 61 232 141 l220 145 0 365 -1 365 74 142 c41 78 134 259
207 402 73 143 157 307 187 364 29 57 52 106 49 108 -2 2 -26 6 -52 9 -27 2
-65 6 -84 9 -47 6 -104 13 -170 20 -30 3 -72 8 -93 11 -36 5 -52 -4 -240 -128
-111 -73 -208 -139 -216 -146 -17 -17 -28 -2 -68 93 -17 39 -49 112 -73 162
l-42 91 -101 12 c-56 6 -115 13 -132 15 -16 2 -57 7 -90 10 -33 3 -74 7 -90
10 -25 4 -57 -12 -195 -101z m-110 -239 c25 -3 70 -10 100 -15 30 -5 73 -12
95 -15 81 -12 67 7 187 -260 27 -60 58 -130 69 -155 11 -25 44 -99 72 -165 42
-97 57 -121 75 -123 12 -2 22 2 22 9 0 6 66 146 148 311 l147 300 75 -7 c41
-4 84 -9 95 -11 26 -5 135 -17 158 -18 28 -1 48 43 -231 -496 -41 -80 -98
-190 -127 -245 -29 -55 -68 -129 -86 -165 l-34 -65 -1 -340 c-1 -187 -3 -346
-3 -354 -1 -10 -11 -12 -43 -7 -24 4 -61 8 -83 11 -22 3 -56 7 -75 10 -19 2
-55 7 -80 11 -25 3 -47 7 -49 9 -2 2 -3 156 -3 342 l0 338 -33 70 c-18 39 -52
113 -77 165 -141 295 -178 372 -178 375 0 2 -38 83 -85 180 -47 98 -85 179
-85 181 0 2 -16 35 -35 74 l-34 71 27 -5 c15 -3 47 -8 72 -11z"/>
<path d="M3257 2904 c-2 -3 -15 -7 -27 -9 -63 -12 -113 -40 -334 -184 -252
-164 -317 -220 -363 -307 l-28 -54 -5 248 c-5 238 -6 247 -25 248 -11 1 -56 7
-100 13 -44 6 -102 13 -130 16 -27 3 -73 8 -101 11 l-51 6 -216 -144 -216
-143 -2 -420 c-1 -231 0 -432 1 -447 1 -19 -3 -27 -12 -24 -7 3 -33 7 -57 10
-46 6 -47 6 -401 -229 l-75 -50 0 -120 c-1 -223 39 -343 150 -450 76 -73 151
-108 278 -128 122 -19 229 -13 302 15 17 7 142 86 278 176 251 166 317 223
333 288 10 38 20 28 34 -33 58 -262 298 -446 602 -461 124 -6 205 7 293 47 79
37 532 340 568 381 59 66 96 153 123 290 4 19 8 206 10 415 3 405 -2 475 -47
620 -19 63 -76 161 -127 222 -68 79 -212 156 -351 187 -57 13 -293 20 -304 10z
m-182 -338 c17 -3 41 -8 55 -11 50 -9 144 -46 204 -79 127 -71 233 -223 261
-376 3 -14 10 -52 16 -85 18 -88 19 -726 2 -833 -32 -204 -110 -325 -249 -389
-73 -33 -85 -35 -204 -39 -156 -4 -279 28 -407 109 -121 75 -189 181 -228 354
-25 107 -25 112 -22 548 2 242 6 449 9 460 3 11 9 34 14 50 13 56 62 140 105
183 51 50 142 97 214 110 52 9 179 8 230 -2z m-1180 -31 c11 -2 38 -6 60 -9
84 -10 76 70 75 -740 -1 -719 -1 -721 -23 -787 -34 -99 -69 -144 -141 -179
-34 -17 -88 -34 -121 -38 -57 -7 -210 6 -280 23 -80 21 -179 93 -230 170 -58
88 -76 162 -79 328 l-2 97 55 -5 c120 -11 201 -22 206 -27 2 -2 6 -45 9 -97 7
-116 30 -171 83 -196 41 -20 92 -22 133 -5 61 25 60 18 60 786 l0 697 88 -7
c48 -4 96 -9 107 -11z m2154 -899 c-2 -2 -62 -42 -134 -89 -71 -48 -134 -90
-140 -94 -5 -5 -34 -23 -63 -41 -38 -23 -53 -28 -50 -18 4 20 382 269 387 255
1 -5 1 -12 0 -13z m-2399 -111 c0 -2 -10 -9 -22 -15 -22 -11 -22 -10 -4 4 21
17 26 19 26 11z m799 -109 c-24 -19 -360 -237 -372 -242 -12 -4 -16 -2 -11 7
8 21 378 260 383 248 1 -6 1 -12 0 -13z m-969 0 c0 -2 -8 -10 -17 -17 -16 -13
-17 -12 -4 4 13 16 21 21 21 13z"/>
<path d="M2942 2267 c-32 -22 -55 -48 -72 -82 l-25 -50 0 -410 c0 -225 3 -431
7 -457 18 -125 101 -211 214 -222 126 -12 190 51 211 208 9 68 9 756 0 825
-18 139 -89 206 -228 215 -53 4 -64 1 -107 -27z m290 -613 c-13 -24 -357 -245
-361 -232 -2 6 3 14 10 19 8 4 86 57 174 118 156 107 196 129 177 95z"/>
</g>
</svg>
