<?xml version="1.0" encoding="utf-8"?>
<!-- Generator: Adobe Illustrator 26.3.1, SVG Export Plug-In . SVG Version: 6.00 Build 0)  -->
<svg version="1.1" id="Layer_1" xmlns="http://www.w3.org/2000/svg" xmlns:xlink="http://www.w3.org/1999/xlink" x="0px" y="0px"
	 viewBox="0 0 100 100" style="enable-background:new 0 0 100 100;" xml:space="preserve">
<style type="text/css">
	.st0{fill:#FFFFFF;}
</style>
<g>
	<path class="st0" d="M22.1,17.7c0.7,0.1,5.7,0.7,14.9,1.8v4.6c0,0.1,0,0.3,0,0.6c-3.8,2.5-5.8,3.9-6.2,4.1L28,28.5v0h0
		c0.2,0,2.6,0.3,7.2,0.9c0,0,0,0,0,0.1c0,0.7,0,2.4,0,5.2c-2.7,1.8-4.7,3.1-6.2,4.1c-0.6-0.1-1-0.1-1-0.1v2.1c0,0.9,0,2.1,0,3.6
		c-4.1,2.7-6.2,4.1-6.2,4.1h0c-0.3,0-2.3-0.2-5.9-0.7v0c0-5.6,0-14.2,0-25.9C19.8,19.2,21.9,17.8,22.1,17.7z M16.5,22.5
		c0,4.8,0,13-0.1,24.7l4.8,0.6c0-0.5,0-1,0-1.3v-6.4c0-0.6,0-1.6,0-2.8l0,0c4.4,0.5,6.7,0.8,7.1,0.8c0-1.2,0-2.1,0-2.7V34
		c0,0-0.3-0.1-0.8-0.1l-6.3-0.8v-6h0c0.1,0,3.1,0.4,9,1.1v-4.1C29.7,24,25.1,23.5,16.5,22.5z"/>
	<path class="st0" d="M42.5,17.1c3.8,0.4,5.8,0.7,6,0.7v0c0,5.4,0,12.3,0,20.6c6.8,0.8,10.4,1.2,10.7,1.3V45
		c-3.6,2.4-5.6,3.8-6.2,4.1c-10.5-1.2-16-1.9-16.7-2v0c0-5.5,0-14.2,0-25.9C40.2,18.6,42.3,17.2,42.5,17.1z M36.8,21.8
		c0,4.2,0,12.5,0,24.7c9.9,1.2,15.1,1.8,15.6,1.8l0-4.1c-7-0.8-10.6-1.2-10.7-1.3c0-8.7,0-15.6,0-20.6h0L36.8,21.8z"/>
	<path class="st0" d="M71.6,17.4H72c1.4,0,2.9,0.3,4.4,0.9c2,0.9,3.5,2.4,4.4,4.3c0.7,1.7,1,3.6,1,5.7v7c0,3.4-0.6,5.7-1.9,7.1
		c-0.6,0.6-1,0.9-1.2,1c-4,2.7-6.3,4.2-6.7,4.4c-1.1,0.5-2.3,0.8-3.4,0.8H68c-1.8,0-3.5-0.5-5.2-1.4c-1.7-1-2.9-2.4-3.6-4.4
		c-0.6-1.7-0.8-3.6-0.8-5.6v-6.7c0-2.7,0.4-4.6,1.2-5.9c0.6-1.1,1.5-2,2.7-2.7c3.6-2.4,5.6-3.7,6-3.9C69.3,17.6,70.4,17.4,71.6,17.4
		z M58.9,30.3c0,1.7,0,4,0,7.1c0,2,0.3,3.9,0.8,5.6c0.7,1.9,2,3.3,3.8,4.2c1.5,0.7,3,1.1,4.6,1.1h0.2c2.6,0,4.4-1,5.6-2.9
		c0.2-0.3,0.5-0.9,0.7-1.6c0.3-1.3,0.5-2.5,0.5-3.9c0-2.8,0-5,0-6.7c0-3.6-0.7-6.2-2-7.8c-0.6-0.8-1.2-1.3-1.7-1.6
		c-0.4-0.3-1-0.6-1.7-0.9c-1.4-0.5-2.8-0.8-4.1-0.8h-0.3c-2.2,0-3.8,0.8-5,2.3C59.4,25.8,58.9,27.7,58.9,30.3z M66.4,26.2h0.3
		c1,0,1.9,0.3,2.6,1c0.6,0.6,0.9,1.7,0.9,3.1c0,3.9,0,6.9,0,9.1c0,1.7-0.2,2.8-0.5,3.4c-0.4,0.9-1.2,1.3-2.1,1.3h0
		c-1.3,0-2.3-0.5-2.9-1.4c-0.5-0.8-0.8-2-0.8-3.6c0-1,0-1.7,0-2.3v-6.1c0-1.5,0.1-2.5,0.4-2.9c0.2-0.6,0.6-1,1.2-1.3
		C65.7,26.3,66.1,26.2,66.4,26.2z M64.4,38.5v0.4l5.2-3.4V35C66.7,37,64.9,38.1,64.4,38.5z M75.7,39.3L75.7,39.3
		c3.3-2.1,5.1-3.4,5.6-3.7v-0.4l0,0h0l-5.6,3.7V39.3z"/>
	<path class="st0" d="M29.9,58.7c3.8,0.4,5.8,0.7,5.8,0.7v0c0,4.6,0,11.3,0,20.3c0,0.9-0.2,1.8-0.6,2.8c-0.2,0.5-0.6,1-1,1.5
		c-0.4,0.3-1,0.8-1.8,1.3c-3.3,2.2-5.2,3.4-5.4,3.6c-0.9,0.4-1.8,0.6-2.7,0.6h-0.4c-0.8,0-1.7-0.1-3-0.4c-0.6-0.2-1.1-0.4-1.5-0.6
		c-2.3-1.4-3.4-3.6-3.4-6.8v-1.3c0-0.7,0-1.1,0.1-1.1l6.1-4c0.2,0,0.7,0.1,1.6,0.2V62.8C27.7,60.2,29.7,58.8,29.9,58.7z M24.3,63.5
		c0,0.5,0,1.5,0,3.3c0,6.3,0,11.5,0,15.6c0,1.1-0.2,1.8-0.5,2.1c-0.3,0.3-0.7,0.4-1.2,0.4c-0.6,0-1.2-0.2-1.6-0.6
		c-0.3-0.4-0.5-0.9-0.6-1.5c0-0.5-0.1-1.1-0.1-1.8v-0.6c-2.3-0.3-3.6-0.4-3.8-0.4c0,0.2,0,0.4,0,0.5v0.9c0,2,0.3,3.5,1,4.5
		c0.7,1.1,1.7,2,3.1,2.5c0.3,0.1,1,0.3,2.2,0.4c0.4,0,0.8,0.1,1,0.1h0.4c1.3,0,2.4-0.4,3.3-1.1c1-0.9,1.5-2.4,1.5-4.4
		c0-0.6,0-1.1,0-1.6c0-6.6,0-12,0-16.2c0-0.7,0-1.2,0-1.4C29,64,27.4,63.8,24.3,63.5z M20.7,80v0.1h0c1.7-1.1,2.7-1.8,2.9-1.9v-0.1
		h0C21.9,79.2,21,79.8,20.7,80z M29.5,83v0.4l5.6-3.7v-0.4C31.9,81.5,30,82.7,29.5,83z"/>
	<path class="st0" d="M48.2,58.4h0.4c1.4,0,2.9,0.3,4.4,0.9c2,0.9,3.5,2.4,4.4,4.3c0.7,1.7,1,3.6,1,5.7v7c0,3.4-0.6,5.7-1.9,7.1
		c-0.6,0.6-1,0.9-1.2,1c-4,2.7-6.3,4.2-6.7,4.4c-1.1,0.5-2.3,0.8-3.4,0.8h-0.6c-1.8,0-3.5-0.5-5.2-1.4c-1.7-1-2.9-2.4-3.6-4.4
		c-0.6-1.7-0.8-3.6-0.8-5.6v-6.7c0-2.7,0.4-4.6,1.2-5.9c0.6-1.1,1.5-2,2.7-2.7c3.6-2.4,5.6-3.7,6-3.9C45.9,58.6,47,58.4,48.2,58.4z
		 M35.6,71.3c0,1.7,0,4,0,7.1c0,2,0.3,3.9,0.8,5.6c0.7,1.9,1.9,3.3,3.8,4.2c1.5,0.7,3,1.1,4.6,1.1h0.2c2.6,0,4.4-1,5.6-2.9
		c0.2-0.3,0.5-0.9,0.7-1.6c0.3-1.3,0.5-2.5,0.5-3.8c0-2.8,0-5,0-6.7c0-3.6-0.7-6.2-2-7.8c-0.6-0.8-1.2-1.3-1.7-1.6
		c-0.4-0.3-1-0.6-1.7-0.9c-1.4-0.5-2.8-0.8-4.1-0.8h-0.3c-2.2,0-3.8,0.8-5,2.3C36.1,66.8,35.6,68.7,35.6,71.3z M43.1,67.2h0.3
		c1,0,1.9,0.3,2.6,1c0.6,0.6,0.9,1.7,0.9,3.1c0,3.8,0,6.9,0,9.1c0,1.7-0.2,2.8-0.5,3.4c-0.4,0.9-1.2,1.3-2.1,1.3h0
		c-1.3,0-2.3-0.5-2.9-1.4c-0.5-0.8-0.8-2-0.8-3.6c0-1,0-1.7,0-2.3v-6.1c0-1.5,0.1-2.5,0.4-2.9c0.2-0.6,0.6-1,1.2-1.3
		C42.4,67.3,42.7,67.2,43.1,67.2z M41,79.5v0.4l5.2-3.4V76C43.3,78,41.6,79.1,41,79.5z M52.3,80.3L52.3,80.3
		c3.3-2.1,5.1-3.4,5.6-3.7v-0.4l0,0h0l-5.6,3.7V80.3z"/>
	<path class="st0" d="M63.9,58.3c1.1,0.1,3.2,0.4,6.3,0.7c0.1,0.1,0.9,1.8,2.4,5.2h0c0-0.1,0.2-0.2,0.5-0.4c3.6-2.4,5.5-3.7,5.8-3.8
		c3.6,0.4,5.7,0.7,6.3,0.7c-4.9,9.6-7.4,14.4-7.5,14.6v0.8c0,2.4,0,5.6,0,9.6c-3.8,2.5-5.9,3.9-6.2,4.1h0c-1-0.1-3-0.3-5.9-0.7
		l0-8.2v-2c-0.1-0.1-2.2-4.7-6.4-13.5c-1-2-1.5-3.1-1.5-3.1C61.5,59.8,63.6,58.5,63.9,58.3z M58.6,63L58.6,63l7.5,15.9l0,9.8
		l4.8,0.6c0-0.2,0-0.3,0-0.4v-7.4c0-0.5,0-1.2,0-2.2c4.8-9.2,7.2-13.9,7.2-13.9l-5-0.6c-2.6,5.3-4.1,8.2-4.3,8.8
		c0,0.1-0.1,0.1-0.1,0.1c-0.3,0-0.5,0-0.5-0.1c-1-2.3-2.1-4.9-3.4-7.7c-0.6-1.4-1-2.1-1-2.1L58.6,63z M67.2,69.9L67.2,69.9
		c2.3-1.4,3.6-2.2,4-2.5c0,0,0-0.1,0.1-0.1h0C69,68.7,67.6,69.6,67.2,69.9L67.2,69.9z"/>
</g>
</svg>
